<svg preserveAspectRatio="none" width="100%" height="100%" overflow="visible" style="display: block;" viewBox="0 0 31 31" fill="none" xmlns="http://www.w3.org/2000/svg">
<g id="Vector" filter="url(#filter0_g_0_5)">
<path d="M15.5 5.95455C15.1136 5.95455 14.79 5.82364 14.5291 5.56182C14.2673 5.30091 14.1364 4.97727 14.1364 4.59091V1.86364C14.1364 1.47727 14.2673 1.15318 14.5291 0.891364C14.79 0.630454 15.1136 0.5 15.5 0.5C15.8864 0.5 16.2105 0.630454 16.4723 0.891364C16.7332 1.15318 16.8636 1.47727 16.8636 1.86364V4.59091C16.8636 4.97727 16.7332 5.30091 16.4723 5.56182C16.2105 5.82364 15.8864 5.95455 15.5 5.95455ZM22.25 8.75C22 8.5 21.875 8.18727 21.875 7.81182C21.875 7.43727 22 7.11364 22.25 6.84091L24.1591 4.89773C24.4318 4.625 24.7555 4.48864 25.13 4.48864C25.5055 4.48864 25.8295 4.625 26.1023 4.89773C26.3523 5.14773 26.4773 5.46591 26.4773 5.85227C26.4773 6.23864 26.3523 6.55682 26.1023 6.80682L24.1591 8.75C23.9091 9 23.5909 9.125 23.2045 9.125C22.8182 9.125 22.5 9 22.25 8.75ZM26.4091 16.8636C26.0227 16.8636 25.6991 16.7327 25.4382 16.4709C25.1764 16.21 25.0455 15.8864 25.0455 15.5C25.0455 15.1136 25.1764 14.7895 25.4382 14.5277C25.6991 14.2668 26.0227 14.1364 26.4091 14.1364H29.1364C29.5227 14.1364 29.8464 14.2668 30.1073 14.5277C30.3691 14.7895 30.5 15.1136 30.5 15.5C30.5 15.8864 30.3691 16.21 30.1073 16.4709C29.8464 16.7327 29.5227 16.8636 29.1364 16.8636H26.4091ZM15.5 30.5C15.1136 30.5 14.79 30.3691 14.5291 30.1073C14.2673 29.8464 14.1364 29.5227 14.1364 29.1364V26.4091C14.1364 26.0227 14.2673 25.6991 14.5291 25.4382C14.79 25.1764 15.1136 25.0455 15.5 25.0455C15.8864 25.0455 16.2105 25.1764 16.4723 25.4382C16.7332 25.6991 16.8636 26.0227 16.8636 26.4091V29.1364C16.8636 29.5227 16.7332 29.8464 16.4723 30.1073C16.2105 30.3691 15.8864 30.5 15.5 30.5ZM6.84091 8.75L4.89773 6.84091C4.625 6.56818 4.48864 6.23864 4.48864 5.85227C4.48864 5.46591 4.625 5.14773 4.89773 4.89773C5.14773 4.64773 5.46591 4.52273 5.85227 4.52273C6.23864 4.52273 6.55682 4.64773 6.80682 4.89773L8.75 6.84091C9 7.09091 9.125 7.40909 9.125 7.79545C9.125 8.18182 9 8.5 8.75 8.75C8.47727 9 8.15909 9.125 7.79545 9.125C7.43182 9.125 7.11364 9 6.84091 8.75ZM24.1591 26.1023L22.25 24.1591C22 23.8864 21.875 23.5627 21.875 23.1882C21.875 22.8127 22 22.5 22.25 22.25C22.5 22 22.8127 21.875 23.1882 21.875C23.5627 21.875 23.8864 22 24.1591 22.25L26.1023 24.1591C26.375 24.4091 26.5055 24.7273 26.4936 25.1136C26.4827 25.5 26.3523 25.8295 26.1023 26.1023C25.8295 26.375 25.5 26.5114 25.1136 26.5114C24.7273 26.5114 24.4091 26.375 24.1591 26.1023ZM1.86364 16.8636C1.47727 16.8636 1.15364 16.7327 0.892727 16.4709C0.630909 16.21 0.5 15.8864 0.5 15.5C0.5 15.1136 0.630909 14.7895 0.892727 14.5277C1.15364 14.2668 1.47727 14.1364 1.86364 14.1364H4.59091C4.97727 14.1364 5.30136 14.2668 5.56318 14.5277C5.82409 14.7895 5.95455 15.1136 5.95455 15.5C5.95455 15.8864 5.82409 16.21 5.56318 16.4709C5.30136 16.7327 4.97727 16.8636 4.59091 16.8636H1.86364ZM4.89773 26.1023C4.64773 25.8523 4.52273 25.5341 4.52273 25.1477C4.52273 24.7614 4.64773 24.4432 4.89773 24.1932L6.84091 22.25C7.09091 22 7.40364 21.875 7.77909 21.875C8.15364 21.875 8.47727 22 8.75 22.25C9.02273 22.5227 9.15909 22.8468 9.15909 23.2223C9.15909 23.5968 9.02273 23.9205 8.75 24.1932L6.84091 26.1023C6.56818 26.375 6.23864 26.5114 5.85227 26.5114C5.46591 26.5114 5.14773 26.375 4.89773 26.1023ZM15.5 23.6818C13.2273 23.6818 11.2955 22.8864 9.70455 21.2955C8.11364 19.7045 7.31818 17.7727 7.31818 15.5C7.31818 13.2273 8.11364 11.2955 9.70455 9.70455C11.2955 8.11364 13.2273 7.31818 15.5 7.31818C17.7727 7.31818 19.7045 8.11364 21.2955 9.70455C22.8864 11.2955 23.6818 13.2273 23.6818 15.5C23.6818 17.7727 22.8864 19.7045 21.2955 21.2955C19.7045 22.8864 17.7727 23.6818 15.5 23.6818ZM15.5 20.9545C17 20.9545 18.2841 20.4205 19.3523 19.3523C20.4205 18.2841 20.9545 17 20.9545 15.5C20.9545 14 20.4205 12.7159 19.3523 11.6477C18.2841 10.5795 17 10.0455 15.5 10.0455C14 10.0455 12.7159 10.5795 11.6477 11.6477C10.5795 12.7159 10.0455 14 10.0455 15.5C10.0455 17 10.5795 18.2841 11.6477 19.3523C12.7159 20.4205 14 20.9545 15.5 20.9545Z" fill="white"/>
</g>
<defs>
<filter id="filter0_g_0_5" x="0" y="0" width="31" height="31" filterUnits="userSpaceOnUse" color-interpolation-filters="sRGB">
<feFlood flood-opacity="0" result="BackgroundImageFix"/>
<feBlend mode="normal" in="SourceGraphic" in2="BackgroundImageFix" result="shape"/>
<feTurbulence type="fractalNoise" baseFrequency="0.25 0.25" numOctaves="3" seed="285" />
<feDisplacementMap in="shape" scale="1" xChannelSelector="R" yChannelSelector="G" result="displacedImage" width="100%" height="100%" />
<feMerge result="effect1_texture_0_5">
<feMergeNode in="displacedImage"/>
</feMerge>
</filter>
</defs>
</svg>
