<svg preserveAspectRatio="none" width="100%" height="100%" overflow="visible" style="display: block;" viewBox="0 0 51 95.375" fill="none" xmlns="http://www.w3.org/2000/svg">
<path id="Union" d="M21.498 0.37499C21.6091 -0.125057 28.2283 -0.124936 28.3398 0.37499C28.4509 0.874969 28.3398 2.37499 28.3398 2.37499C28.3398 2.37499 38.5479 4.87499 40.5479 7.37499C42.5477 9.8752 40.5 21.875 40.5 21.875L33.6816 28.375L44.292 46.375C44.292 46.375 48.1816 65.875 46.1816 68.375C44.1811 70.8749 28.3398 71.875 28.3398 71.875H28V87.3906C40.6394 87.5594 50.5734 88.9963 50.9844 90.7617C50.9858 90.7673 50.9881 90.7726 50.9893 90.7783C50.9956 90.8105 51 90.8426 51 90.875V91.875L50.9912 91.9648C50.9909 91.9665 50.9896 91.968 50.9893 91.9697C50.9878 91.977 50.9852 91.984 50.9834 91.9912C50.5343 93.8701 39.2983 95.375 25.5 95.375C11.7011 95.375 0.463914 93.8702 0.015625 91.9912C0.0138036 91.984 0.0112538 91.977 0.00976562 91.9697C0.00944916 91.9681 0.00908924 91.9665 0.00878906 91.9648L0 91.875V90.875C0 90.8427 0.00341616 90.8104 0.00976562 90.7783C0.0109417 90.7727 0.0132718 90.7673 0.0146484 90.7617C0.435576 88.9499 10.8879 87.4852 24 87.3808V71.875H23C23 71.875 5.50018 70.875 3.5 68.375C1.5 65.875 5.61035 46.375 5.61035 46.375L16.999 28.375L9.45215 21.875C9.45173 21.8724 7.50021 9.87472 9.5 7.37499C11.4949 4.88136 21.4474 2.38767 21.498 2.37499C21.4978 2.37146 21.3871 0.874517 21.498 0.37499Z" fill="#D9D9D9"/>
</svg>
