<svg preserveAspectRatio="none" width="100%" height="100%" overflow="visible" style="display: block;" viewBox="0 0 125 248" fill="none" xmlns="http://www.w3.org/2000/svg">
<g id="fitscore" filter="url(#filter0_d_0_23)">
<g clip-path="url(#clip0_0_23)">
<rect x="8" width="109" height="230" rx="8" fill="#FCFDFE"/>
<path id="&#235;&#167;&#136;&#235;&#132;&#164;&#237;&#130;&#185;" d="M63.1619 15C70.3009 15 75.3962 18.8579 75.3962 29.3115L75.3816 30.7217C75.3623 31.6291 75.3242 32.5138 75.2683 33.375C75.4572 33.3048 75.6319 33.285 75.7908 33.3242C76.0714 33.394 76.2423 33.6287 76.3445 33.9102C76.4472 34.1933 76.4944 34.5598 76.5105 34.9619C76.5267 35.3665 76.5111 35.82 76.4802 36.2832C76.2555 39.6543 75.3724 41.5204 73.7859 42.5107C73.0049 45.2597 71.9606 47.5517 70.7058 49.3359C70.6957 50.063 70.6638 50.9056 70.6355 51.8086C70.6017 52.8865 70.5751 54.0572 70.6062 55.2383C70.6686 57.6059 70.9603 59.9993 71.8582 61.7852C72.0787 62.2233 72.5093 62.6848 73.1101 63.1562C73.7088 63.6259 74.4666 64.0986 75.3279 64.5625C77.0514 65.4907 79.1783 66.3804 81.2498 67.1543C83.3204 67.9278 85.3338 68.5855 86.8289 69.0488C87.5759 69.2804 88.1949 69.4636 88.6257 69.5889C88.8406 69.6513 89.0101 69.7 89.1248 69.7324C89.1814 69.7485 89.2262 69.7603 89.2556 69.7686C89.2697 69.7725 89.2815 69.7763 89.2888 69.7783C89.2917 69.7791 89.2949 69.7798 89.2966 69.7803L89.2996 69.7812L89.2849 69.832C91.8568 70.6389 94.8437 71.5456 96.3181 74.7041C96.5292 75.1565 96.6944 75.7914 96.8259 76.5645C96.9578 77.34 97.0576 78.2667 97.1335 79.3096C97.2854 81.3958 97.343 83.9609 97.3718 86.7451C97.4296 92.3189 97.3727 98.775 97.7185 104.078V104.085C97.834 109.396 97.8343 114.303 97.8054 117.882C97.791 119.671 97.7688 121.129 97.7507 122.14C97.7417 122.644 97.7341 123.038 97.7283 123.305C97.7267 123.376 97.7256 123.438 97.7244 123.491C97.7273 123.506 97.7309 123.526 97.7351 123.548C97.7478 123.613 97.7668 123.71 97.7908 123.834C97.839 124.083 97.9088 124.444 97.9939 124.889C98.1644 125.779 98.3984 127.01 98.6502 128.368C99.1536 131.085 99.7306 134.32 100.025 136.382C100.373 138.814 101.009 147.594 101.556 155.755C101.831 159.838 102.082 163.77 102.266 166.681C102.358 168.136 102.433 169.337 102.485 170.173C102.511 170.59 102.531 170.918 102.545 171.141C102.547 171.177 102.55 171.211 102.552 171.242L102.564 171.241V171.242C102.564 171.243 102.565 171.245 102.565 171.246C102.566 171.25 102.566 171.256 102.567 171.264C102.569 171.279 102.572 171.301 102.575 171.33C102.582 171.389 102.593 171.476 102.606 171.589C102.633 171.815 102.673 172.144 102.723 172.557C102.824 173.382 102.968 174.544 103.141 175.885C103.488 178.567 103.949 181.971 104.41 184.854C104.519 185.535 104.709 186.38 104.803 187.227C104.899 188.079 104.903 188.97 104.635 189.777C104.408 190.456 104.122 191.943 103.861 193.391C103.603 194.825 103.37 196.221 103.253 196.69C103.233 196.77 103.189 196.863 103.134 196.961C103.077 197.061 103.002 197.177 102.913 197.305C102.734 197.561 102.493 197.872 102.211 198.215C101.645 198.9 100.906 199.719 100.153 200.486C99.401 201.253 98.6305 201.974 98.0017 202.46C97.6887 202.702 97.402 202.893 97.1668 203C97.0501 203.053 96.9351 203.091 96.8298 203.1C96.7225 203.108 96.606 203.086 96.5183 202.998L96.4666 202.932C96.4237 202.861 96.4055 202.78 96.4031 202.701C96.4 202.597 96.4211 202.479 96.4568 202.358C96.5145 202.163 96.6184 201.932 96.7507 201.677C96.6295 201.62 96.536 201.501 96.4714 201.381C96.4039 201.255 96.3532 201.1 96.324 200.941C96.2904 200.759 96.2846 200.548 96.3328 200.355C96.3031 200.372 96.2733 200.389 96.2439 200.403C96.0903 200.48 95.9285 200.537 95.7839 200.559C95.6495 200.578 95.4786 200.573 95.364 200.459L95.3093 200.386C95.2666 200.308 95.2567 200.218 95.2625 200.136C95.2704 200.025 95.3062 199.899 95.3582 199.767C95.4629 199.5 95.6497 199.166 95.8865 198.793C95.8935 198.782 95.9018 198.771 95.9089 198.76L95.825 198.843C95.7391 198.756 95.7145 198.637 95.7156 198.529C95.7168 198.419 95.7432 198.294 95.7849 198.161C95.869 197.895 96.0263 197.56 96.2293 197.187C96.6367 196.436 97.2466 195.493 97.8806 194.541C98.5168 193.586 99.1777 192.623 99.696 191.823C99.9547 191.424 100.176 191.069 100.34 190.778C100.488 190.514 100.578 190.318 100.613 190.197C100.61 190.19 100.607 190.183 100.604 190.176C100.445 189.781 100.226 189.341 99.9851 188.944C99.7433 188.546 99.4853 188.199 99.2527 187.983C99.136 187.875 99.0337 187.808 98.9529 187.779C98.8776 187.753 98.8321 187.762 98.7996 187.783C98.7987 187.784 98.7962 187.786 98.7927 187.79C98.7881 187.795 98.7814 187.802 98.7742 187.812C98.7591 187.832 98.7411 187.861 98.7214 187.899C98.6817 187.977 98.6387 188.084 98.5935 188.219C98.5031 188.488 98.4082 188.852 98.3103 189.279C98.1145 190.134 97.91 191.227 97.7 192.297C97.4906 193.363 97.2754 194.409 97.0613 195.159C96.9549 195.532 96.845 195.845 96.7312 196.052C96.6755 196.153 96.6092 196.247 96.5281 196.306C96.4856 196.336 96.4332 196.362 96.3728 196.368C96.3106 196.374 96.2504 196.359 96.199 196.33C95.9473 196.187 95.7906 195.927 95.6931 195.651C95.595 195.373 95.5479 195.053 95.5271 194.758C95.5063 194.461 95.5108 194.18 95.5212 193.974C95.5265 193.871 95.5336 193.786 95.5388 193.727C95.5414 193.697 95.544 193.673 95.5457 193.657C95.5464 193.65 95.5471 193.643 95.5476 193.639V193.632C95.5478 193.624 95.5483 193.613 95.5486 193.601C95.5492 193.57 95.5494 193.524 95.5505 193.467C95.5529 193.35 95.5566 193.18 95.5603 192.969C95.5677 192.546 95.5769 191.954 95.5828 191.281C95.5946 189.935 95.5948 188.264 95.5476 186.962C95.502 185.707 95.3294 184.503 95.196 183.401C95.0636 182.307 94.9678 181.302 95.0867 180.47C95.2056 179.638 95.5351 178.862 95.866 178.057C96.1991 177.246 96.5387 176.395 96.7029 175.389C96.901 174.174 97.1148 172.905 97.155 172.172C97.1527 172.162 97.1494 172.15 97.1462 172.138C97.1318 172.081 97.1096 171.996 97.0818 171.886C97.0259 171.665 96.9442 171.34 96.8396 170.926C96.6299 170.095 96.3292 168.899 95.9656 167.443C95.2383 164.531 94.2587 160.575 93.2498 156.398C91.2332 148.051 89.0952 138.808 88.6238 135.272C88.3917 133.531 88.2762 130.752 88.2185 128.416C88.1896 127.247 88.1749 126.186 88.1677 125.417C88.1641 125.033 88.1618 124.721 88.1609 124.506V124.408C88.1603 124.402 88.159 124.393 88.158 124.382C88.1558 124.359 88.1524 124.323 88.1482 124.277C88.1397 124.186 88.1278 124.05 88.1121 123.875C88.0805 123.523 88.0353 123.007 87.9812 122.355C87.8729 121.052 87.7281 119.201 87.5837 117.016C87.2951 112.644 87.0066 106.927 87.0066 101.549C87.0065 99.8777 86.8342 97.5187 86.6609 95.1084C86.5539 93.6202 86.4469 92.1125 86.3806 90.7402C86.0718 92.851 85.6105 95.1842 85.2498 97.2041C84.3331 102.337 83.1192 106.673 82.0505 110.784C80.9845 114.885 80.062 118.764 79.7146 123.004C79.762 127.492 81.3443 131.336 83.3044 135.569C85.292 139.861 87.6647 144.551 89.1697 150.682C90.3085 154.525 91.6704 159.548 91.7136 168.964H91.7166C91.7166 169.009 91.7143 169.059 91.7136 169.114C91.7139 169.217 91.7156 169.321 91.7156 169.425H91.7097C91.6342 172.455 90.9434 183.826 89.6375 192.532C88.5284 199.926 87.1967 205.623 85.9871 211.324C84.7774 217.025 83.6881 222.737 83.0584 230.171C82.4488 237.366 81.9052 241.936 82.1355 248.617L81.9734 248.623H82.1365C82.1365 250.916 82.653 253.957 83.1736 257.457C83.6931 260.949 84.2136 264.884 84.2136 268.937C84.2135 276.422 82.9414 284.341 81.614 291.419C80.2846 298.507 78.9037 304.738 78.6736 308.879C78.5561 310.993 77.9184 314.528 77.2566 318.667C76.5935 322.814 75.903 327.585 75.6726 332.191L75.6707 332.19C75.6636 333.277 75.6112 334.406 75.5574 335.481C75.4995 336.637 75.4421 337.729 75.4421 338.647C75.4422 341.363 75.902 344.853 76.5925 348.077C76.8681 349.364 77.446 353.332 78.0115 357.237C78.5783 361.152 79.1327 365.004 79.3621 366.082C79.4251 366.379 79.3286 366.707 79.1462 367.033C78.9618 367.363 78.6765 367.716 78.3269 368.073C77.6266 368.789 76.6435 369.549 75.6072 370.224C74.5701 370.899 73.4707 371.494 72.5369 371.88C72.0705 372.072 71.64 372.215 71.2761 372.288C70.9205 372.359 70.5963 372.371 70.365 372.266C69.0604 371.673 67.943 370.558 67.1531 369.392C66.3664 368.23 65.8848 366.985 65.8845 366.116C65.8845 365.025 65.9998 362.365 66.115 359.38C66.2303 356.391 66.3454 353.07 66.3455 350.65C66.3455 345.911 66.6347 342.69 66.9236 339.839C67.2124 336.989 67.5007 334.515 67.5007 331.261H67.5115C68.3019 317.407 67.9 306.231 67.2976 297.051C66.6924 287.829 65.8836 280.6 65.8835 274.707C65.8836 271.977 66.1733 269.836 66.4617 267.547C66.7499 265.259 67.0378 262.817 67.0378 259.473C67.0378 254.468 67.014 253.764 66.8152 249.547H66.8074C66.8074 247.362 66.6349 245.406 66.4617 243.356C66.2886 241.308 66.115 239.166 66.115 236.62C66.115 233.269 65.9727 229.403 65.8152 225.133C65.6577 220.863 65.4851 216.19 65.4226 211.23C65.3312 203.973 64.9852 196.36 64.7771 189.746C64.5788 183.443 64.5072 178.039 64.9041 174.734H60.8455C61.2392 178.041 61.1673 183.435 60.9695 189.724C60.7614 196.337 60.4154 203.951 60.324 211.208C60.2615 216.168 60.0889 220.841 59.9314 225.11C59.7739 229.38 59.6316 233.247 59.6316 236.598C59.6316 239.144 59.458 241.285 59.2849 243.334C59.1117 245.384 58.9392 247.34 58.9392 249.524H58.9304C58.7317 253.741 58.7078 254.445 58.7078 259.45C58.7078 262.794 58.9957 265.236 59.2839 267.524C59.5723 269.813 59.8621 271.955 59.8621 274.685C59.862 280.577 59.0532 287.807 58.448 297.028C57.8456 306.208 57.4437 317.384 58.2341 331.238H58.2459C58.2459 334.492 58.5342 336.966 58.823 339.816C59.1119 342.667 59.4011 345.889 59.4011 350.628C59.4012 353.048 59.5163 356.369 59.6316 359.357C59.7468 362.342 59.8621 365.003 59.8621 366.094C59.8617 366.963 59.3802 368.207 58.5935 369.369C57.8037 370.535 56.686 371.65 55.3816 372.243C55.1503 372.348 54.8259 372.337 54.4705 372.266C54.1065 372.193 53.6762 372.05 53.2097 371.857C52.2757 371.472 51.1766 370.876 50.1394 370.201C49.1029 369.526 48.12 368.767 47.4197 368.051C47.07 367.693 46.7848 367.341 46.6003 367.011C46.418 366.685 46.3216 366.356 46.3845 366.06C46.6139 364.982 47.1683 361.129 47.7351 357.215C48.3006 353.31 48.8785 349.342 49.1541 348.055C49.8446 344.83 50.3043 341.341 50.3044 338.625C50.3044 337.707 50.2471 336.615 50.1892 335.459C50.1354 334.384 50.083 333.254 50.0759 332.168L50.074 332.169C49.8436 327.562 49.1531 322.792 48.49 318.645C47.8282 314.505 47.1905 310.97 47.073 308.856C46.8429 304.716 45.462 298.485 44.1326 291.396C42.8051 284.318 41.5331 276.4 41.533 268.914C41.533 264.862 42.0535 260.927 42.573 257.435C43.0936 253.935 43.61 250.893 43.6101 248.601H43.7722L43.6111 248.595C43.8415 241.913 43.2978 237.343 42.6882 230.147C42.0586 222.715 40.8825 217.011 39.5867 211.315C38.2909 205.62 36.8737 199.928 35.7644 192.533C35.0711 187.911 34.5508 182.54 34.2332 178.036C33.9161 173.54 33.7997 169.888 33.9168 168.717L33.9285 168.718C34.3944 160.147 35.291 158.788 36.4568 152.085C37.2043 147.788 39.6419 143.028 41.9314 138.079C44.2027 133.169 46.3336 128.059 46.6013 122.957C46.1373 118.622 45.1649 114.814 44.0769 110.814C42.9819 106.789 41.77 102.568 40.8533 97.4346C40.4619 95.2428 40.0476 92.3604 39.5203 89.834C39.4645 91.434 39.3343 93.2918 39.2029 95.1201C39.0296 97.5305 38.8572 99.8894 38.8572 101.561C38.8572 106.939 38.5687 112.656 38.28 117.027C38.1357 119.213 37.9908 121.064 37.8826 122.367C37.8285 123.019 37.7833 123.534 37.7517 123.887C37.736 124.062 37.724 124.198 37.7156 124.289C37.7114 124.335 37.708 124.37 37.7058 124.394C37.7047 124.405 37.7034 124.414 37.7029 124.42V124.518C37.702 124.733 37.6997 125.044 37.696 125.429C37.6888 126.197 37.6741 127.258 37.6453 128.428C37.5876 130.764 37.4721 133.543 37.24 135.284C36.7686 138.819 34.6306 148.062 32.614 156.41C31.6051 160.587 30.6255 164.543 29.8982 167.455C29.5346 168.911 29.2339 170.107 29.0242 170.938C28.9195 171.352 28.8379 171.677 28.782 171.897C28.7541 172.008 28.7319 172.093 28.7175 172.149C28.714 172.163 28.7103 172.176 28.7078 172.187C28.7485 172.92 28.962 174.187 29.1599 175.4C29.3241 176.407 29.6637 177.258 29.9968 178.068C30.3278 178.874 30.6572 179.65 30.7761 180.481C30.895 181.314 30.7992 182.318 30.6668 183.413C30.5334 184.515 30.3607 185.718 30.3152 186.974C30.268 188.276 30.2682 189.947 30.28 191.293C30.2859 191.966 30.2951 192.557 30.3025 192.98C30.3062 193.192 30.3099 193.362 30.3123 193.479C30.3135 193.536 30.3136 193.582 30.3142 193.612C30.3145 193.625 30.315 193.636 30.3152 193.644V193.65C30.3157 193.655 30.3163 193.661 30.3171 193.669C30.3188 193.685 30.3214 193.709 30.324 193.738C30.3292 193.798 30.3363 193.883 30.3416 193.985C30.352 194.191 30.3566 194.473 30.3357 194.77C30.3149 195.065 30.268 195.384 30.1697 195.663C30.0721 195.939 29.916 196.199 29.6638 196.342C29.6123 196.371 29.5522 196.386 29.49 196.38C29.4298 196.373 29.3771 196.348 29.3347 196.317C29.2538 196.259 29.1872 196.165 29.1316 196.063C29.0178 195.856 28.9079 195.544 28.8015 195.171C28.5874 194.42 28.3722 193.375 28.1628 192.309C27.9528 191.239 27.7484 190.146 27.5525 189.291C27.4545 188.864 27.3598 188.499 27.2693 188.23C27.224 188.096 27.1811 187.989 27.1414 187.911C27.1216 187.873 27.1037 187.843 27.0886 187.823C27.0814 187.814 27.0747 187.806 27.0701 187.802C27.0664 187.798 27.0638 187.795 27.0632 187.795C27.0306 187.773 26.9853 187.764 26.9099 187.791C26.829 187.82 26.7268 187.887 26.6101 187.995C26.3774 188.211 26.1195 188.558 25.8777 188.956C25.637 189.352 25.4174 189.792 25.2585 190.188C25.2557 190.194 25.2525 190.202 25.2498 190.209C25.2844 190.33 25.3747 190.526 25.5232 190.79C25.6864 191.08 25.9081 191.436 26.1668 191.835C26.6851 192.635 27.346 193.598 27.9822 194.553C28.6162 195.504 29.2261 196.448 29.6335 197.198C29.8366 197.572 29.9938 197.906 30.0779 198.173C30.1197 198.306 30.146 198.431 30.1472 198.541C30.1483 198.649 30.1243 198.768 30.0378 198.854L29.9539 198.771C29.961 198.783 29.9693 198.794 29.9763 198.805C30.2131 199.178 30.3999 199.512 30.5046 199.778C30.5567 199.911 30.5925 200.037 30.6003 200.147C30.608 200.257 30.5889 200.379 30.4988 200.47L30.4998 200.471C30.385 200.585 30.2143 200.59 30.0798 200.57C29.9353 200.549 29.7735 200.492 29.6199 200.415C29.5906 200.4 29.5605 200.384 29.531 200.367C29.5792 200.56 29.5734 200.77 29.5398 200.953C29.5105 201.112 29.46 201.266 29.3923 201.393C29.3277 201.513 29.2345 201.632 29.113 201.688C29.2454 201.944 29.3483 202.175 29.406 202.37C29.4417 202.491 29.4629 202.608 29.4597 202.713C29.4565 202.818 29.4268 202.927 29.3445 203.01C29.2567 203.097 29.1404 203.12 29.033 203.111C28.9277 203.103 28.8126 203.065 28.696 203.012C28.4609 202.904 28.174 202.714 27.8611 202.472C27.2324 201.985 26.4616 201.264 25.7097 200.498C24.957 199.731 24.2179 198.912 23.6521 198.227C23.3695 197.884 23.1283 197.572 22.95 197.316C22.8611 197.189 22.7859 197.073 22.7293 196.973C22.6741 196.875 22.63 196.781 22.6101 196.702C22.4929 196.233 22.2599 194.837 22.0017 193.402C21.7412 191.955 21.4545 190.468 21.2283 189.789C20.9595 188.982 20.964 188.091 21.0593 187.238C21.154 186.392 21.3439 185.546 21.4529 184.865C21.9141 181.983 22.3753 178.579 22.7214 175.896C22.8945 174.556 23.0385 173.394 23.1394 172.568C23.1899 172.156 23.2296 171.826 23.2566 171.601C23.2701 171.488 23.2809 171.401 23.2878 171.342C23.2913 171.313 23.2939 171.29 23.2957 171.275C23.2965 171.268 23.2972 171.262 23.2976 171.258C23.2979 171.256 23.2985 171.255 23.2986 171.254V171.253L23.3123 171.254C23.3142 171.223 23.3168 171.189 23.3191 171.152C23.3328 170.93 23.3528 170.602 23.3787 170.185C23.4305 169.348 23.5055 168.147 23.5974 166.692C23.7814 163.782 24.0333 159.849 24.3074 155.767C24.8553 147.606 25.4913 138.826 25.8386 136.394C26.1332 134.332 26.7102 131.096 27.2136 128.38C27.4654 127.021 27.6994 125.791 27.8699 124.9C27.955 124.456 28.0248 124.095 28.073 123.846C28.097 123.722 28.1159 123.625 28.1287 123.56C28.133 123.538 28.1365 123.518 28.1394 123.503C28.1382 123.45 28.1371 123.387 28.1355 123.316C28.1296 123.049 28.1221 122.656 28.113 122.151C28.095 121.141 28.0728 119.683 28.0584 117.894C28.0295 114.315 28.0298 109.408 28.1453 104.097V104.09C28.4911 98.7867 28.4342 92.3307 28.4919 86.7568C28.5208 83.9725 28.5784 81.4076 28.7302 79.3213C28.8062 78.2783 28.906 77.3518 29.0378 76.5762C29.1694 75.8029 29.3345 75.1683 29.5457 74.7158C31.1927 71.1871 34.7277 70.4692 37.4627 69.5605C37.8872 69.4164 38.4964 69.2061 39.2322 68.9424C40.7057 68.4142 42.6901 67.6706 44.7322 66.8105C46.7751 65.9501 48.8733 64.9746 50.5759 63.9814C51.4272 63.4849 52.1769 62.9851 52.7703 62.4961C53.3656 62.0054 53.7931 61.5326 54.0144 61.0928C54.9143 59.3034 55.2596 57.0796 55.3767 54.8877C55.4831 52.8945 55.4034 50.9511 55.3875 49.3916C54.0338 47.5629 52.9014 45.1815 52.0671 42.2783C51.3072 41.8121 50.6493 41.1817 50.1502 40.2666C49.6164 39.2878 49.2666 37.9932 49.1502 36.2471C49.1193 35.7838 49.1037 35.3305 49.1199 34.9258C49.136 34.5236 49.1832 34.1573 49.2859 33.874C49.388 33.5925 49.5592 33.3581 49.8396 33.2881C50.0641 33.2323 50.3196 33.294 50.6033 33.4512C50.5284 32.3555 50.4836 31.2188 50.4705 30.042L50.4666 29.3115C50.4666 18.8583 56.0232 15.0003 63.1619 15ZM70.3728 49.7891C68.3958 52.3847 65.9342 53.7793 63.1619 53.7793C60.3545 53.779 57.7929 52.421 55.7166 49.8203C55.7402 51.2925 55.798 53.0849 55.7009 54.9043C55.5831 57.1109 55.2347 59.3895 54.3044 61.2393C54.0534 61.7379 53.5853 62.2441 52.9763 62.7461C52.3648 63.2501 51.5989 63.7591 50.739 64.2607C49.0189 65.2641 46.9066 66.2466 44.8582 67.1094C42.8089 67.9724 40.8186 68.7186 39.3416 69.248C38.6174 69.5076 38.0154 69.715 37.5906 69.8594L37.5916 69.8604C37.5762 69.8654 37.56 69.8699 37.5447 69.875C37.342 69.9438 37.1819 69.9977 37.072 70.0342C37.0156 70.0529 36.9714 70.0675 36.9421 70.0771C36.9279 70.0818 36.9163 70.0855 36.9089 70.0879C36.9055 70.089 36.902 70.0902 36.9002 70.0908L36.8982 70.0918L36.8953 70.083C34.2517 70.9199 31.29 71.7457 29.8396 74.8535C29.6469 75.2665 29.4871 75.8663 29.3572 76.6299C29.2276 77.3915 29.129 78.307 29.0535 79.3447C28.9024 81.4203 28.845 83.9768 28.8162 86.7607C28.7621 91.9764 28.8095 97.99 28.53 103.101L28.4695 104.11C28.3543 109.415 28.3537 114.315 28.3826 117.891C28.397 119.679 28.4192 121.136 28.4373 122.146C28.4463 122.65 28.4539 123.043 28.4597 123.31C28.4615 123.392 28.4623 123.463 28.4636 123.521L28.4666 123.521L28.4656 123.522C28.4654 123.523 28.4649 123.525 28.4646 123.526C28.4654 123.56 28.466 123.589 28.4666 123.613C28.4674 123.647 28.4681 123.673 28.4685 123.69C28.4687 123.699 28.4694 123.706 28.4695 123.71V123.717L28.4275 123.718C28.4172 123.771 28.4054 123.835 28.3914 123.907C28.3432 124.156 28.2734 124.517 28.1882 124.962C28.0178 125.852 27.7846 127.082 27.533 128.439C27.0294 131.157 26.4524 134.385 26.1589 136.439C25.8138 138.856 25.18 147.619 24.6316 155.788C24.3575 159.87 24.1046 163.803 23.9207 166.713C23.8287 168.168 23.7537 169.368 23.7019 170.204C23.676 170.622 23.656 170.949 23.6423 171.172C23.6355 171.283 23.6302 171.369 23.6267 171.426C23.625 171.454 23.6237 171.477 23.6228 171.491C23.6224 171.498 23.622 171.504 23.6218 171.508V171.513L23.5935 171.511C23.5889 171.549 23.5845 171.592 23.5789 171.64C23.5518 171.866 23.5121 172.195 23.4617 172.607C23.3607 173.434 23.2159 174.596 23.0427 175.938C22.6964 178.621 22.2352 182.028 21.7732 184.916C21.6591 185.629 21.4756 186.434 21.3816 187.274C21.2883 188.109 21.289 188.945 21.5359 189.687C21.7713 190.393 22.0623 191.907 22.321 193.345C22.5819 194.794 22.8108 196.167 22.9246 196.623C22.9335 196.659 22.9601 196.722 23.0115 196.812C23.0615 196.901 23.13 197.009 23.2156 197.132C23.3869 197.378 23.6226 197.682 23.9021 198.021C24.4613 198.698 25.1941 199.51 25.9412 200.271C26.689 201.034 27.4486 201.742 28.0603 202.215C28.3671 202.452 28.6299 202.625 28.8308 202.717C28.9311 202.763 29.0068 202.784 29.0584 202.788C29.0826 202.79 29.0983 202.787 29.1062 202.785C29.1122 202.783 29.115 202.781 29.116 202.78C29.1205 202.776 29.1338 202.758 29.1355 202.703C29.1372 202.647 29.1254 202.567 29.0945 202.462C29.0327 202.253 28.9058 201.978 28.7273 201.653C28.3711 201.005 27.8269 200.188 27.2498 199.352C26.6751 198.518 26.0663 197.662 25.5896 196.947C25.3511 196.589 25.1431 196.263 24.9871 195.988C24.8344 195.72 24.7199 195.482 24.6853 195.31C24.5658 194.712 24.5667 193.885 24.5955 193.107C24.6248 192.317 24.6823 191.582 24.6824 191.123C24.6825 190.859 24.7948 190.472 24.9578 190.066C25.1234 189.654 25.3509 189.199 25.6003 188.788C25.8487 188.379 26.1247 188.003 26.3894 187.758C26.5208 187.636 26.6601 187.537 26.7996 187.486C26.944 187.434 27.1028 187.432 27.2429 187.525C27.3226 187.579 27.3825 187.672 27.4294 187.764C27.4795 187.861 27.5283 187.985 27.5759 188.127C27.6716 188.411 27.7693 188.788 27.8679 189.219C28.0653 190.08 28.2721 191.181 28.4812 192.246C28.691 193.314 28.9033 194.347 29.113 195.082C29.2184 195.451 29.3206 195.734 29.4158 195.907C29.4599 195.987 29.4966 196.03 29.5193 196.049C29.6662 195.958 29.7815 195.79 29.864 195.556C29.9488 195.315 29.9926 195.028 30.0125 194.747C30.0322 194.467 30.0273 194.2 30.0173 194.002C30.0124 193.904 30.0057 193.822 30.0007 193.767C29.9983 193.739 29.9964 193.717 29.9949 193.702C29.9941 193.695 29.9933 193.689 29.9929 193.686V193.681L29.9919 193.673V193.663C29.9918 193.661 29.9911 193.657 29.991 193.653C29.9908 193.646 29.9913 193.634 29.991 193.619C29.9903 193.589 29.9892 193.543 29.988 193.484C29.9856 193.368 29.982 193.198 29.9783 192.986C29.9709 192.563 29.9617 191.97 29.9558 191.296C29.944 189.949 29.9445 188.272 29.9919 186.962C30.0381 185.689 30.2122 184.467 30.3445 183.374C30.4776 182.274 30.5667 181.311 30.4548 180.527C30.3428 179.744 30.0323 179.007 29.697 178.191C29.3638 177.381 29.0104 176.499 28.8396 175.452C28.641 174.235 28.4184 172.913 28.3826 172.155H28.3816V172.154C28.3818 172.153 28.3821 172.152 28.3826 172.15C28.3795 172.084 28.3757 172.021 28.3757 171.964H28.4304C28.4412 171.922 28.4536 171.873 28.4675 171.818C28.5234 171.598 28.6049 171.273 28.7097 170.857C28.9193 170.027 29.2203 168.832 29.5837 167.377C30.3109 164.465 31.2909 160.509 32.2996 156.334C34.3182 147.978 36.4501 138.755 36.9187 135.241C37.1482 133.52 37.2633 130.758 37.321 128.42C37.3499 127.253 37.3646 126.193 37.3718 125.426C37.3754 125.042 37.3778 124.73 37.3787 124.516V124.183H37.3992C37.4068 124.098 37.4167 123.989 37.4285 123.857C37.46 123.506 37.5053 122.991 37.5593 122.34C37.6675 121.038 37.8116 119.19 37.9558 117.007C38.2442 112.639 38.533 106.929 38.533 101.561C38.533 99.8748 38.7067 97.5018 38.8796 95.0967C39.0529 92.6868 39.2253 90.2428 39.2253 88.4033H39.5496C39.5496 88.4699 39.5471 88.5374 39.5466 88.6055L39.5808 88.5977C40.2382 91.3729 40.7233 94.8618 41.1726 97.3779C42.0863 102.494 43.2931 106.7 44.3894 110.729C45.4679 114.694 46.4379 118.489 46.9099 122.802L46.9343 122.804C46.9323 122.85 46.9289 122.897 46.9265 122.943C46.9289 122.966 46.9319 122.989 46.9343 123.012L46.9226 123.013C46.6424 128.172 44.4899 133.319 42.2253 138.215C39.9237 143.19 37.5144 147.897 36.7761 152.14C35.5929 158.943 34.7 160.214 34.239 168.972L34.2214 168.971C34.1389 170.308 34.257 173.768 34.5564 178.013C34.8737 182.511 35.3931 187.874 36.0847 192.484C37.1917 199.864 38.6059 205.542 39.9031 211.243C41.2002 216.944 42.379 222.666 43.0105 230.12C43.6193 237.306 44.1656 241.9 43.9343 248.606C43.9334 250.929 43.4119 254.003 42.8943 257.482C42.3751 260.973 41.8572 264.888 41.8572 268.914C41.8573 276.368 43.124 284.261 44.4509 291.337C45.776 298.402 47.1655 304.669 47.3972 308.838C47.5135 310.93 48.1457 314.437 48.8103 318.594C49.463 322.677 50.1435 327.374 50.3855 331.931H50.3982C50.3982 333.08 50.4557 334.288 50.5134 335.442C50.5711 336.595 50.6287 337.697 50.6287 338.625C50.6286 341.371 50.165 344.885 49.4714 348.123C49.1988 349.397 48.6221 353.347 48.0554 357.261C47.4901 361.165 46.9332 365.035 46.7009 366.127C46.662 366.311 46.7169 366.554 46.8835 366.853C47.0487 367.148 47.3119 367.477 47.6511 367.824C48.3292 368.517 49.2921 369.262 50.3171 369.93C51.3415 370.597 52.4217 371.181 53.3328 371.558C53.7886 371.746 54.1983 371.88 54.5339 371.947C54.8771 372.016 55.1137 372.007 55.2468 371.947C56.4806 371.386 57.5569 370.322 58.325 369.188C59.0956 368.049 59.5375 366.869 59.5378 366.094C59.5378 365.011 59.4228 362.362 59.3074 359.37C59.1921 356.382 59.0769 353.055 59.0769 350.628C59.0769 345.904 58.7881 342.694 58.4998 339.849C58.2184 337.072 57.9373 334.634 57.9236 331.478L57.9226 331.479C57.1143 317.505 57.5176 306.244 58.1238 297.007C58.7304 287.763 59.5378 280.564 59.5378 274.685C59.5378 271.978 59.2504 269.856 58.9617 267.564C58.6729 265.273 58.3836 262.815 58.3835 259.45C58.3835 254.37 58.4082 253.712 58.615 249.329H58.616C58.6258 247.207 58.7938 245.293 58.9617 243.307C59.1347 241.259 59.3073 239.129 59.3074 236.598C59.3074 233.239 59.4497 229.366 59.6072 225.098C59.7647 220.828 59.9373 216.159 59.9998 211.204C60.0912 203.943 60.4374 196.321 60.6453 189.714C60.8442 183.391 60.9144 178.005 60.5193 174.734H60.3923V174.41H60.4783C60.4731 174.372 60.469 174.333 60.4636 174.296L60.7839 174.251C60.7914 174.303 60.7973 174.357 60.8044 174.41H64.9451C64.9513 174.364 64.9562 174.318 64.9627 174.273L65.283 174.318C64.8238 177.533 64.8932 183.122 65.1013 189.736C65.3092 196.343 65.6553 203.965 65.7468 211.227C65.8093 216.182 65.9819 220.85 66.1394 225.12C66.2969 229.389 66.4392 233.262 66.4392 236.62C66.4392 239.152 66.6119 241.281 66.7849 243.329C66.9528 245.316 67.1208 247.229 67.1306 249.352L67.2546 252.067C67.3488 254.34 67.3621 255.662 67.3621 259.473C67.362 262.837 67.0727 265.295 66.7839 267.587C66.4952 269.879 66.2078 272.001 66.2078 274.707C66.2078 280.586 67.0152 287.785 67.6218 297.029C68.228 306.267 68.6313 317.528 67.823 331.501V331.5C67.8093 334.657 67.5281 337.095 67.2468 339.871C66.9585 342.716 66.6697 345.926 66.6697 350.65C66.6697 353.078 66.5545 356.405 66.4392 359.393C66.3238 362.384 66.2088 365.034 66.2087 366.116C66.209 366.892 66.6509 368.072 67.4216 369.21C68.1897 370.344 69.2658 371.409 70.4998 371.97C70.6328 372.03 70.8693 372.038 71.2127 371.97C71.5482 371.903 71.958 371.768 72.4138 371.58C73.3248 371.204 74.4052 370.619 75.4294 369.952C76.4543 369.285 77.4174 368.54 78.0955 367.847C78.4346 367.5 78.6979 367.17 78.863 366.875C79.0298 366.577 79.0847 366.334 79.0457 366.149C78.8133 365.058 78.2566 361.188 77.6912 357.283C77.1245 353.369 76.5477 349.419 76.2752 348.146C75.5816 344.907 75.118 341.393 75.1179 338.647C75.1179 337.719 75.1755 336.617 75.2332 335.465C75.2909 334.311 75.3484 333.102 75.3484 331.953H75.3611C75.6031 327.397 76.2836 322.699 76.9363 318.616C77.6009 314.459 78.2331 310.952 78.3494 308.86C78.5811 304.691 79.9707 298.424 81.2957 291.359C82.6226 284.284 83.8893 276.39 83.8894 268.937C83.8894 264.91 83.3715 260.995 82.8523 257.505C82.3346 254.025 81.814 250.951 81.8132 248.628L81.8113 248.629C81.5801 241.923 82.1263 237.329 82.7351 230.143C83.3665 222.69 84.4598 216.964 85.6707 211.257C86.8816 205.55 88.209 199.865 89.3162 192.484C90.6699 183.46 91.3599 171.564 91.3894 169.113C91.36 159.641 89.9977 154.616 88.8591 150.773L88.8572 150.767C87.3614 144.669 85.0036 140.009 83.0105 135.705C81.0506 131.473 79.4405 127.576 79.3904 123.016H79.3894C79.3898 123.011 79.39 123.006 79.3904 123.001C79.3897 122.933 79.3884 122.865 79.3884 122.797H79.4089C79.7699 118.597 80.6855 114.748 81.7371 110.703C82.8074 106.586 84.0166 102.265 84.9304 97.1475C85.4186 94.4137 86.0842 91.1499 86.3142 88.6201H86.3162C86.3156 88.5431 86.3142 88.4667 86.3142 88.3916H86.6384C86.6384 90.231 86.8109 92.6752 86.9841 95.085C87.157 97.49 87.3308 99.8631 87.3308 101.549C87.3308 106.917 87.6195 112.627 87.908 116.995C88.0521 119.178 88.1963 121.026 88.3044 122.328C88.3585 122.979 88.4038 123.494 88.4353 123.846C88.4471 123.977 88.457 124.086 88.4646 124.171H88.4851V124.504C88.486 124.719 88.4883 125.031 88.4919 125.414C88.4992 126.182 88.5139 127.241 88.5427 128.408C88.6005 130.746 88.7156 133.508 88.9451 135.229C89.4137 138.743 91.5456 147.966 93.5642 156.322C94.5729 160.498 95.5529 164.454 96.28 167.365C96.6434 168.82 96.9445 170.015 97.1541 170.846C97.2588 171.261 97.3404 171.586 97.3962 171.807C97.4101 171.861 97.4226 171.91 97.4334 171.952H97.4871C97.4871 172.009 97.4833 172.072 97.4802 172.138V172.139C97.4806 172.14 97.4817 172.142 97.4822 172.143V172.144H97.4802C97.4444 172.901 97.2218 174.223 97.0232 175.44C96.8524 176.487 96.499 177.369 96.1658 178.18C95.8306 178.995 95.52 179.732 95.408 180.516C95.2961 181.299 95.3852 182.262 95.5183 183.362C95.6505 184.455 95.8247 185.677 95.8709 186.95C95.9183 188.26 95.9188 189.937 95.907 191.284C95.9011 191.958 95.8919 192.551 95.8845 192.975C95.8808 193.186 95.8772 193.356 95.8748 193.473C95.8736 193.531 95.8725 193.577 95.8718 193.607C95.8715 193.622 95.872 193.634 95.8718 193.642C95.8718 193.645 95.871 193.649 95.8709 193.651V193.661L95.8699 193.669V193.674C95.8695 193.677 95.8687 193.683 95.8679 193.69C95.8664 193.705 95.8645 193.727 95.8621 193.755C95.8571 193.811 95.8504 193.892 95.8455 193.99C95.8355 194.188 95.8307 194.456 95.8503 194.735C95.8701 195.016 95.9142 195.304 95.9988 195.544C96.0812 195.777 96.197 195.946 96.3435 196.037C96.3662 196.018 96.4026 195.976 96.447 195.896C96.5422 195.722 96.6444 195.44 96.7498 195.07C96.9595 194.335 97.1718 193.303 97.3816 192.234C97.5907 191.17 97.7975 190.068 97.9949 189.207C98.0935 188.777 98.1912 188.4 98.2869 188.115C98.3345 187.974 98.3833 187.85 98.4334 187.752C98.4803 187.66 98.5403 187.567 98.6199 187.514C98.7599 187.42 98.9188 187.423 99.0632 187.475C99.2026 187.525 99.3421 187.624 99.4734 187.746C99.738 187.992 100.014 188.368 100.262 188.776C100.512 189.187 100.739 189.643 100.905 190.055C101.068 190.46 101.18 190.847 101.18 191.111C101.18 191.57 101.238 192.305 101.267 193.096C101.296 193.874 101.297 194.7 101.177 195.298C101.143 195.471 101.028 195.708 100.876 195.977C100.72 196.251 100.512 196.578 100.273 196.936C99.7964 197.651 99.1877 198.507 98.613 199.34C98.0359 200.177 97.4917 200.993 97.1355 201.642C96.9571 201.966 96.8301 202.241 96.7683 202.45C96.7376 202.555 96.7257 202.635 96.7273 202.691C96.7281 202.718 96.7321 202.737 96.7361 202.749L96.7468 202.769C96.7476 202.769 96.7506 202.772 96.7566 202.773C96.7643 202.776 96.7801 202.778 96.8044 202.776C96.856 202.772 96.9315 202.751 97.032 202.705C97.233 202.613 97.4956 202.44 97.8025 202.203C98.4142 201.73 99.1736 201.022 99.9216 200.26C100.669 199.498 101.401 198.686 101.961 198.009C102.24 197.67 102.476 197.366 102.647 197.12C102.733 196.997 102.801 196.889 102.851 196.801C102.903 196.71 102.929 196.647 102.938 196.611C103.052 196.156 103.281 194.782 103.542 193.333C103.801 191.895 104.092 190.381 104.327 189.675C104.574 188.933 104.575 188.097 104.481 187.263C104.387 186.422 104.204 185.617 104.09 184.904C103.628 182.017 103.166 178.609 102.82 175.926C102.647 174.584 102.502 173.422 102.401 172.596C102.351 172.183 102.311 171.854 102.284 171.628C102.278 171.581 102.274 171.537 102.269 171.499L102.242 171.501V171.496C102.242 171.493 102.241 171.486 102.241 171.479C102.24 171.465 102.239 171.442 102.237 171.414C102.234 171.357 102.228 171.271 102.221 171.16C102.208 170.938 102.188 170.61 102.162 170.192C102.11 169.356 102.035 168.156 101.943 166.701C101.759 163.791 101.506 159.859 101.232 155.776C100.684 147.607 100.05 138.844 99.7048 136.428C99.4114 134.373 98.8344 131.145 98.3308 128.428C98.0792 127.07 97.8459 125.84 97.6755 124.95C97.5904 124.506 97.5206 124.144 97.4724 123.896C97.4584 123.823 97.4466 123.759 97.4363 123.706L97.3943 123.705V123.698C97.3944 123.694 97.3951 123.687 97.3953 123.679C97.3957 123.661 97.3964 123.635 97.3972 123.602C97.3978 123.577 97.3984 123.548 97.3992 123.515C97.3989 123.513 97.3984 123.512 97.3982 123.511L97.3972 123.51L97.4002 123.509C97.4015 123.451 97.4022 123.38 97.4041 123.298C97.4099 123.031 97.4175 122.638 97.4265 122.134C97.4445 121.124 97.4668 119.667 97.4812 117.879C97.51 114.304 97.5095 109.403 97.3943 104.099L97.3337 103.089C97.0543 97.9784 97.1017 91.9646 97.0476 86.749C97.0188 83.9652 96.9614 81.4085 96.8103 79.333C96.7348 78.2955 96.6361 77.3797 96.5066 76.6182C96.3767 75.8548 96.2168 75.2547 96.0242 74.8418C94.4449 71.4583 91.0732 70.7822 88.2722 69.8486L88.2791 69.8252C87.8714 69.7053 87.3451 69.548 86.7332 69.3584C85.2344 68.8939 83.2147 68.2344 81.1365 67.458C79.0592 66.6819 76.9169 65.787 75.1746 64.8486C74.3037 64.3796 73.5284 63.8964 72.9099 63.4111C72.2939 62.9278 71.8199 62.432 71.5681 61.9316C70.6362 60.0783 70.3446 57.6228 70.282 55.2461C70.2507 54.0554 70.2775 52.8772 70.3113 51.7979C70.3339 51.0757 70.3581 50.3987 70.3728 49.7891ZM24.9226 194.566C24.9379 194.816 24.9637 195.046 25.0037 195.246C25.0268 195.362 25.1148 195.558 25.2683 195.828C25.4187 196.093 25.622 196.412 25.8591 196.768C26.3343 197.48 26.9382 198.328 27.5173 199.168C28.0939 200.004 28.6464 200.833 29.0115 201.497C29.0426 201.554 29.0718 201.61 29.1003 201.665L28.9773 201.395C29.0035 201.382 29.0536 201.337 29.1062 201.239C29.1559 201.147 29.1984 201.026 29.2224 200.896C29.2727 200.622 29.2349 200.367 29.1121 200.235C28.9265 200.036 28.5786 199.56 28.2253 199.062C27.8668 198.555 27.4963 198.018 27.2527 197.682C27.1333 197.517 26.9064 197.232 26.6316 196.887C26.3583 196.543 26.04 196.141 25.7419 195.747C25.4445 195.354 25.1631 194.963 24.9666 194.643C24.951 194.617 24.9372 194.591 24.9226 194.566ZM100.896 194.631C100.7 194.952 100.419 195.342 100.122 195.735C99.8237 196.129 99.5055 196.531 99.2322 196.875C98.9576 197.22 98.7305 197.504 98.6111 197.669C98.3674 198.005 97.997 198.544 97.6384 199.05C97.285 199.549 96.9372 200.025 96.7517 200.224C96.6292 200.355 96.5913 200.61 96.6414 200.883C96.6654 201.013 96.7079 201.135 96.7576 201.228C96.8098 201.325 96.86 201.37 96.8865 201.383L96.7683 201.642C96.795 201.591 96.8224 201.538 96.8513 201.485C97.2163 200.821 97.7688 199.992 98.3455 199.156C98.9246 198.316 99.5284 197.469 100.004 196.756C100.241 196.4 100.444 196.081 100.594 195.816C100.748 195.546 100.836 195.35 100.859 195.234C100.899 195.034 100.925 194.804 100.94 194.555C100.926 194.579 100.912 194.606 100.896 194.631ZM24.9197 193.12C24.9106 193.366 24.9056 193.614 24.905 193.854C24.9191 193.865 24.934 193.875 24.948 193.887C25.053 193.971 25.1718 194.09 25.2966 194.228C25.5473 194.504 25.8402 194.878 26.1296 195.269C26.709 196.051 27.2874 196.919 27.5183 197.266C27.7464 197.608 28.0896 198.065 28.4089 198.5C28.7227 198.928 29.0222 199.346 29.1453 199.592C29.238 199.777 29.4899 199.987 29.7644 200.124C29.8985 200.191 30.0266 200.235 30.1267 200.25C30.2302 200.265 30.2658 200.244 30.2703 200.241C30.2729 200.237 30.2805 200.218 30.2771 200.17C30.2726 200.106 30.2496 200.015 30.2029 199.896C30.1097 199.66 29.9367 199.347 29.7029 198.979C29.2361 198.242 28.5444 197.309 27.8201 196.356C27.0979 195.407 26.342 194.437 25.7546 193.635C25.4609 193.234 25.2067 192.871 25.0183 192.571C24.9951 192.534 24.9733 192.497 24.9519 192.462C24.9408 192.676 24.9279 192.898 24.9197 193.12ZM100.844 192.56C100.656 192.859 100.402 193.222 100.108 193.623C99.5207 194.425 98.7649 195.395 98.0427 196.345C97.3184 197.297 96.6267 198.231 96.1599 198.967C95.9261 199.336 95.7531 199.648 95.6599 199.885C95.6133 200.003 95.5903 200.095 95.5857 200.158C95.5825 200.204 95.5896 200.224 95.5925 200.229L95.5935 200.23C95.5977 200.233 95.6335 200.253 95.7371 200.238C95.8371 200.223 95.9654 200.18 96.0994 200.113C96.3741 199.976 96.6258 199.765 96.7185 199.58C96.8416 199.334 97.1401 198.916 97.4539 198.488C97.7732 198.053 98.1164 197.596 98.3445 197.254C98.5753 196.908 99.1546 196.039 99.7341 195.257C100.024 194.866 100.317 194.492 100.567 194.216C100.692 194.078 100.811 193.961 100.916 193.876C100.93 193.865 100.944 193.854 100.958 193.844C100.957 193.603 100.952 193.355 100.943 193.108C100.935 192.887 100.922 192.664 100.911 192.45C100.89 192.485 100.868 192.523 100.844 192.56ZM25.0916 190.667C25.0371 190.855 25.0067 191.011 25.0066 191.123C25.0066 191.306 24.9969 191.537 24.9841 191.796C24.9963 191.846 25.0249 191.921 25.075 192.021C25.1283 192.127 25.2017 192.254 25.2927 192.398C25.4751 192.688 25.724 193.044 26.0164 193.443C26.6015 194.242 27.3521 195.206 28.0779 196.16C28.7269 197.013 29.3544 197.862 29.8201 198.568C29.8206 198.561 29.8231 198.553 29.823 198.545C29.8223 198.48 29.8056 198.389 29.7683 198.271C29.6938 198.034 29.5486 197.722 29.3484 197.354C28.9487 196.618 28.3469 195.685 27.7127 194.732C27.0806 193.784 26.4147 192.813 25.8953 192.012C25.6354 191.611 25.4092 191.248 25.241 190.949C25.1855 190.851 25.1355 190.755 25.0916 190.667ZM100.622 190.938C100.454 191.237 100.227 191.599 99.9675 192C99.4481 192.801 98.7822 193.772 98.1502 194.721C97.5159 195.673 96.9141 196.606 96.5144 197.342C96.3143 197.71 96.169 198.023 96.0945 198.259C96.0573 198.377 96.0406 198.469 96.0398 198.533C96.0397 198.542 96.0422 198.55 96.0427 198.557C96.5084 197.851 97.1359 197.002 97.7849 196.148C98.5107 195.194 99.2613 194.231 99.8464 193.432C100.139 193.032 100.388 192.677 100.57 192.387C100.661 192.242 100.734 192.115 100.788 192.009C100.838 191.909 100.867 191.835 100.879 191.784C100.866 191.526 100.856 191.295 100.856 191.111C100.856 190.999 100.826 190.843 100.771 190.655C100.727 190.743 100.677 190.839 100.622 190.938ZM63.1619 15.3242C59.6484 15.3244 56.5681 16.2737 54.366 18.4658C52.1647 20.6574 50.7908 24.1405 50.7908 29.3115C50.7908 34.2969 51.3545 38.5669 52.3455 42.0674C52.3615 42.0767 52.3772 42.0875 52.3933 42.0967L52.3669 42.1416C52.9259 44.0978 53.6184 45.8125 54.4216 47.2754C54.7481 47.8699 55.0935 48.4218 55.4539 48.9316H55.7068C55.7068 49.0462 55.7097 49.1641 55.7107 49.2842C57.7848 52.0459 60.3606 53.4548 63.1619 53.4551C65.9285 53.455 68.4062 52.0048 70.3826 49.2354C70.3837 49.1317 70.3865 49.0302 70.3865 48.9316H70.5935C70.9712 48.374 71.3302 47.7667 71.6677 47.1104C72.3755 45.7339 72.9862 44.1467 73.489 42.3643L73.4685 42.3271C73.4815 42.3198 73.4938 42.3103 73.5066 42.3027C74.2051 39.808 74.6892 36.932 74.9187 33.7119L74.8435 33.5986C74.8726 33.5792 74.9019 33.5605 74.9304 33.543C75.0226 32.1915 75.072 30.7802 75.072 29.3115C75.072 24.1328 73.8096 20.6484 71.7214 18.459C69.6358 16.2726 66.6747 15.3242 63.1619 15.3242ZM75.7127 33.6387C75.608 33.613 75.4551 33.6308 75.24 33.7402C75.0202 36.8206 74.5711 39.5941 73.9197 42.0264C75.1906 41.0686 75.9509 39.3529 76.157 36.2617C76.1875 35.8039 76.2028 35.3629 76.1873 34.9746C76.1716 34.5842 76.1245 34.2569 76.0388 34.0205C75.9526 33.7832 75.8403 33.6704 75.7127 33.6387ZM50.6072 33.832C50.273 33.6093 50.0544 33.5686 49.9177 33.6025C49.7902 33.6346 49.6777 33.747 49.5916 33.9844C49.5059 34.2209 49.4588 34.548 49.4431 34.9385C49.4276 35.3268 49.4429 35.7677 49.4734 36.2256C49.5878 37.9412 49.9306 39.186 50.4353 40.1113C50.8373 40.8483 51.3472 41.3867 51.9353 41.8027C51.2991 39.4555 50.8517 36.7818 50.6287 33.7988L50.6072 33.832Z" fill="#000C40"/>
</g>
</g>
<defs>
<filter id="filter0_d_0_23" x="0" y="0" width="125" height="248" filterUnits="userSpaceOnUse" color-interpolation-filters="sRGB">
<feFlood flood-opacity="0" result="BackgroundImageFix"/>
<feColorMatrix in="SourceAlpha" type="matrix" values="0 0 0 0 0 0 0 0 0 0 0 0 0 0 0 0 0 0 127 0" result="hardAlpha"/>
<feMorphology radius="16" operator="erode" in="SourceAlpha" result="effect1_dropShadow_0_23"/>
<feOffset dy="10"/>
<feGaussianBlur stdDeviation="12"/>
<feComposite in2="hardAlpha" operator="out"/>
<feColorMatrix type="matrix" values="0 0 0 0 0 0 0 0 0 0 0 0 0 0 0 0 0 0 0.25 0"/>
<feBlend mode="normal" in2="BackgroundImageFix" result="effect1_dropShadow_0_23"/>
<feBlend mode="normal" in="SourceGraphic" in2="effect1_dropShadow_0_23" result="shape"/>
</filter>
<clipPath id="clip0_0_23">
<rect x="8" width="109" height="230" rx="8" fill="white"/>
</clipPath>
</defs>
</svg>
