<svg preserveAspectRatio="none" width="100%" height="100%" overflow="visible" style="display: block;" viewBox="0 0 18.5032 14.8932" fill="none" xmlns="http://www.w3.org/2000/svg">
<path d="M5.19434 0.450757C5.19434 0.450757 5.74122 0.299105 6.09694 0.225108C7.2682 -0.0185414 9.1521 0.000339996 9.1521 0.000339996C9.4183 0.0609559 9.74276 0.0488916 10.0163 0.0848423C13.43 0.533499 16.7342 2.37017 17.9544 5.90113C18.3992 7.18822 18.4429 7.84331 18.4973 9.17551C18.7433 15.2 11.2862 14.8608 7.34923 14.8929C5.67805 14.9062 3.98508 14.4563 2.79332 13.7647C1.60156 13.073 -0.11078 10.6196 0.00563634 7.22098L0.00961427 7.07298C0.0522487 6.91575 0.2085 5.70754 0.219479 5.41558C0.227871 5.19242 0.283165 4.67904 0.455706 4.28734C0.726639 3.67226 0.726784 3.46862 1.13265 2.9329C1.3518 2.64364 1.52865 2.52797 1.7847 2.2708C2.14416 1.90975 2.93785 1.35335 2.93785 1.35335C2.93785 1.35335 3.67222 0.900599 4.29174 0.676407C4.69583 0.530177 5.19434 0.450757 5.19434 0.450757ZM10.0163 11.2825C11.141 11.1102 12.2159 10.0934 12.7612 9.10838C13.8358 7.16725 14.1874 4.93932 12.2185 3.41102C10.8706 2.36471 9.27778 2.60658 7.66591 2.70779C6.68953 2.74022 5.70444 3.06056 4.95812 3.83604C4.38349 4.52583 3.79921 5.27651 3.81197 6.11955C3.84147 8.06758 4.59748 8.81544 5.99351 10.1601C7.19522 11.3176 8.45367 11.5234 10.0163 11.2825Z" fill="#F2F2F2"/>
</svg>
