<svg preserveAspectRatio="none" width="100%" height="100%" overflow="visible" style="display: block;" viewBox="0 0 125 258" fill="none" xmlns="http://www.w3.org/2000/svg">
<g id="fitscore" filter="url(#filter0_d_0_22)">
<g clip-path="url(#clip0_0_22)">
<rect x="8" width="109" height="240" rx="3" fill="#FCFDFE"/>
<path id="&#235;&#167;&#136;&#235;&#132;&#164;&#237;&#130;&#185;" d="M63.1626 15C70.3012 15.0003 75.397 18.8583 75.397 29.3115L75.3823 30.7217C75.3631 31.6291 75.324 32.5138 75.2681 33.375C75.4573 33.3046 75.6324 33.2847 75.7915 33.3242C76.0719 33.3942 76.2431 33.6287 76.3452 33.9102C76.4478 34.1933 76.4951 34.5599 76.5112 34.9619C76.5274 35.3665 76.5118 35.8201 76.481 36.2832C76.2562 39.6547 75.3725 41.5215 73.7857 42.5117C73.0047 45.2602 71.9601 47.5519 70.7056 49.3359C70.6955 50.063 70.6635 50.9055 70.6353 51.8086C70.6015 52.8865 70.5749 54.0571 70.606 55.2383C70.6683 57.606 70.96 59.9993 71.8579 61.7852C72.0785 62.2233 72.5091 62.6848 73.1099 63.1562C73.7086 63.6259 74.4663 64.0986 75.3276 64.5625C77.0511 65.4907 79.1781 66.3804 81.2495 67.1543C83.3202 67.9278 85.3336 68.5855 86.8286 69.0488C87.5757 69.2804 88.1947 69.4636 88.6255 69.5889C88.8404 69.6513 89.0099 69.7 89.1245 69.7324C89.1812 69.7485 89.226 69.7604 89.2554 69.7686C89.2695 69.7725 89.2813 69.7763 89.2886 69.7783C89.2915 69.7791 89.2947 69.7798 89.2964 69.7803L89.2993 69.7812L89.2847 69.8311C91.8567 70.638 94.8445 71.5452 96.3189 74.7041C96.5299 75.1566 96.6952 75.7913 96.8267 76.5645C96.9585 77.34 97.0584 78.2667 97.1343 79.3096C97.2861 81.3958 97.3437 83.9609 97.3726 86.7451C97.4303 92.3189 97.3734 98.775 97.7192 104.078V104.085C97.8347 109.396 97.835 114.303 97.8062 117.882C97.7917 119.671 97.7695 121.129 97.7515 122.14C97.7425 122.644 97.7349 123.038 97.729 123.305C97.7275 123.376 97.7263 123.438 97.7251 123.491C97.728 123.506 97.7316 123.526 97.7358 123.548C97.7486 123.613 97.7676 123.71 97.7915 123.834C97.8397 124.083 97.9095 124.444 97.9946 124.889C98.1651 125.779 98.3991 127.01 98.6509 128.368C99.1543 131.085 99.7313 134.32 100.026 136.382C100.373 138.814 101.009 147.594 101.557 155.755C101.831 159.838 102.083 163.77 102.267 166.681C102.359 168.136 102.434 169.337 102.486 170.173C102.512 170.59 102.532 170.918 102.545 171.141C102.548 171.177 102.55 171.211 102.552 171.242L102.565 171.241V171.242C102.565 171.243 102.566 171.245 102.566 171.246C102.566 171.25 102.567 171.256 102.568 171.264C102.57 171.279 102.572 171.301 102.576 171.33C102.583 171.389 102.593 171.476 102.607 171.589C102.634 171.815 102.674 172.144 102.724 172.557C102.825 173.382 102.969 174.544 103.142 175.885C103.488 178.567 103.949 181.971 104.411 184.854C104.52 185.535 104.71 186.38 104.804 187.227C104.9 188.079 104.904 188.971 104.635 189.777C104.409 190.456 104.122 191.943 103.862 193.391C103.604 194.825 103.371 196.221 103.253 196.69C103.234 196.77 103.189 196.863 103.134 196.961C103.078 197.061 103.002 197.177 102.914 197.305C102.735 197.561 102.494 197.872 102.211 198.215C101.646 198.9 100.907 199.719 100.154 200.486C99.4019 201.253 98.6312 201.974 98.0024 202.46C97.6896 202.702 97.4027 202.892 97.1675 203C97.0509 203.053 96.9358 203.091 96.8306 203.1C96.7231 203.108 96.6069 203.086 96.5191 202.998L96.4673 202.932C96.4242 202.861 96.4062 202.78 96.4038 202.701C96.4008 202.597 96.4218 202.479 96.4575 202.358C96.5153 202.163 96.6191 201.932 96.7515 201.677C96.6298 201.621 96.5368 201.501 96.4722 201.381C96.4045 201.255 96.354 201.1 96.3247 200.941C96.2911 200.759 96.2853 200.548 96.3335 200.355C96.3039 200.372 96.274 200.389 96.2446 200.403C96.0911 200.48 95.9293 200.537 95.7847 200.559C95.6502 200.578 95.4795 200.574 95.3648 200.459L95.3101 200.386C95.2671 200.308 95.2574 200.218 95.2632 200.136C95.2711 200.025 95.307 199.899 95.3589 199.767C95.4637 199.5 95.6505 199.166 95.8872 198.793C95.8942 198.782 95.9026 198.771 95.9097 198.76L95.8257 198.843C95.7393 198.756 95.7152 198.638 95.7163 198.529C95.7176 198.419 95.7439 198.294 95.7857 198.161C95.8697 197.895 96.027 197.56 96.23 197.187C96.6375 196.436 97.2474 195.493 97.8814 194.541C98.5175 193.586 99.1785 192.623 99.6968 191.823C99.9554 191.424 100.177 191.068 100.34 190.778C100.489 190.514 100.579 190.318 100.614 190.197C100.611 190.19 100.608 190.183 100.605 190.176C100.446 189.781 100.226 189.341 99.9858 188.944C99.744 188.546 99.4861 188.199 99.2534 187.983C99.1367 187.875 99.0345 187.808 98.9536 187.779C98.8783 187.752 98.8329 187.762 98.8003 187.783C98.7998 187.784 98.7972 187.786 98.7935 187.79C98.7889 187.795 98.7821 187.802 98.7749 187.812C98.7599 187.832 98.7419 187.861 98.7222 187.899C98.6825 187.977 98.6395 188.084 98.5942 188.219C98.5038 188.488 98.409 188.852 98.311 189.279C98.1152 190.134 97.9107 191.227 97.7007 192.297C97.4914 193.363 97.2761 194.409 97.062 195.159C96.9557 195.532 96.8457 195.845 96.7319 196.052C96.6763 196.153 96.6097 196.247 96.5288 196.306C96.4864 196.336 96.4338 196.362 96.3735 196.368C96.3112 196.375 96.2513 196.359 96.1997 196.33C95.9476 196.187 95.7914 195.928 95.6939 195.651C95.5957 195.373 95.5486 195.053 95.5278 194.758C95.507 194.461 95.5116 194.18 95.522 193.974C95.5272 193.871 95.5343 193.786 95.5396 193.727C95.5421 193.697 95.5447 193.673 95.5464 193.657C95.5472 193.65 95.5479 193.643 95.5483 193.639V193.632C95.5485 193.624 95.549 193.613 95.5493 193.601C95.55 193.57 95.5501 193.524 95.5513 193.467C95.5537 193.35 95.5574 193.18 95.561 192.969C95.5684 192.546 95.5776 191.954 95.5835 191.281C95.5953 189.935 95.5956 188.264 95.5483 186.962C95.5028 185.707 95.3301 184.503 95.1968 183.401C95.0644 182.307 94.9686 181.302 95.0874 180.47C95.2063 179.638 95.5358 178.862 95.8667 178.057C96.1998 177.246 96.5394 176.395 96.7036 175.389C96.9018 174.174 97.1155 172.905 97.1558 172.172C97.1534 172.162 97.1502 172.15 97.147 172.138C97.1326 172.081 97.1104 171.996 97.0825 171.886C97.0266 171.665 96.945 171.341 96.8403 170.926C96.6307 170.095 96.3299 168.899 95.9663 167.443C95.239 164.531 94.2594 160.575 93.2505 156.398C91.2339 148.051 89.096 138.808 88.6245 135.272C88.3924 133.531 88.2769 130.752 88.2192 128.416C88.1904 127.247 88.1757 126.186 88.1685 125.417C88.1649 125.033 88.1625 124.721 88.1616 124.506V124.408C88.1611 124.402 88.1598 124.393 88.1587 124.382C88.1565 124.359 88.1531 124.323 88.1489 124.277C88.1405 124.186 88.1285 124.05 88.1128 123.875C88.0812 123.523 88.0361 123.007 87.9819 122.355C87.8737 121.052 87.7288 119.201 87.5845 117.016C87.2959 112.644 87.0073 106.927 87.0073 101.549C87.0073 99.8777 86.8349 97.5187 86.6616 95.1084C86.5546 93.6198 86.4466 92.1118 86.3804 90.7393C86.0716 92.8503 85.6103 95.1839 85.2495 97.2041C84.3329 102.337 83.119 106.673 82.0503 110.784C80.9842 114.885 80.0618 118.764 79.7144 123.004C79.7617 127.492 81.344 131.336 83.3042 135.569C85.2918 139.861 87.6645 144.551 89.1694 150.682C90.3082 154.525 91.6702 159.548 91.7134 168.964H91.7163C91.7163 169.009 91.714 169.059 91.7134 169.114C91.7137 169.217 91.7153 169.321 91.7153 169.425H91.7095C91.634 172.455 90.9431 183.826 89.6372 192.532C88.5282 199.926 87.1965 205.623 85.9868 211.324C84.7772 217.025 83.6879 222.737 83.0581 230.171C82.4486 237.366 81.9049 241.936 82.1353 248.617L81.9732 248.623H82.1362C82.1363 250.916 82.6527 253.957 83.1733 257.457C83.6928 260.949 84.2133 264.884 84.2134 268.937C84.2133 276.422 82.9412 284.341 81.6138 291.419C80.2844 298.507 78.9035 304.738 78.6733 308.879C78.5558 310.993 77.9182 314.528 77.2564 318.667C76.5933 322.814 75.9028 327.585 75.6724 332.191L75.6704 332.19C75.6634 333.277 75.6109 334.406 75.5571 335.481C75.4993 336.637 75.4419 337.729 75.4419 338.647C75.442 341.363 75.9017 344.853 76.5923 348.077C76.8679 349.364 77.4457 353.332 78.0112 357.237C78.578 361.152 79.1324 365.004 79.3618 366.082C79.4248 366.379 79.3283 366.707 79.146 367.033C78.9616 367.363 78.6762 367.716 78.3267 368.073C77.6264 368.789 76.6432 369.549 75.6069 370.224C74.5699 370.899 73.4705 371.494 72.5366 371.88C72.0703 372.072 71.6397 372.215 71.2759 372.288C70.9204 372.359 70.5961 372.371 70.3648 372.266C69.0602 371.673 67.9427 370.558 67.1528 369.392C66.3661 368.23 65.8846 366.985 65.8843 366.116C65.8843 365.025 65.9996 362.365 66.1148 359.38C66.2301 356.391 66.3452 353.07 66.3452 350.65C66.3452 345.911 66.6345 342.69 66.9233 339.839C67.2122 336.989 67.5005 334.515 67.5005 331.261H67.5112C68.3016 317.407 67.8998 306.231 67.2974 297.051C66.6922 287.829 65.8833 280.6 65.8833 274.707C65.8833 271.977 66.1731 269.836 66.4614 267.547C66.7497 265.259 67.0376 262.817 67.0376 259.473C67.0376 254.468 67.0137 253.764 66.8149 249.547H66.8071C66.8071 247.362 66.6346 245.406 66.4614 243.356C66.2883 241.308 66.1148 239.166 66.1148 236.62C66.1148 233.269 65.9725 229.403 65.8149 225.133C65.6575 220.863 65.4849 216.19 65.4224 211.23C65.3309 203.973 64.9849 196.36 64.7769 189.746C64.5786 183.443 64.507 178.039 64.9038 174.734H60.8452C61.239 178.041 61.1671 183.435 60.9692 189.724C60.7612 196.337 60.4152 203.951 60.3237 211.208C60.2612 216.168 60.0887 220.841 59.9312 225.11C59.7736 229.38 59.6314 233.247 59.6314 236.598C59.6313 239.144 59.4578 241.285 59.2847 243.334C59.1115 245.384 58.939 247.34 58.939 249.524H58.9302C58.7314 253.741 58.7075 254.445 58.7075 259.45C58.7076 262.794 58.9954 265.236 59.2837 267.524C59.572 269.813 59.8618 271.955 59.8618 274.685C59.8618 280.577 59.0529 287.807 58.4478 297.028C57.8453 306.208 57.4435 317.384 58.2339 331.238H58.2456C58.2457 334.492 58.5339 336.966 58.8228 339.816C59.1116 342.667 59.4009 345.889 59.4009 350.628C59.4009 353.048 59.516 356.369 59.6314 359.357C59.7465 362.342 59.8618 365.003 59.8618 366.094C59.8615 366.963 59.3799 368.207 58.5933 369.369C57.8034 370.536 56.6859 371.65 55.3814 372.243C55.1501 372.348 54.8258 372.337 54.4702 372.266C54.1063 372.193 53.6759 372.05 53.2095 371.857C52.2756 371.472 51.1763 370.876 50.1392 370.201C49.1028 369.526 48.1198 368.767 47.4194 368.051C47.0698 367.693 46.7846 367.34 46.6001 367.011C46.4177 366.685 46.3214 366.356 46.3843 366.06C46.6137 364.982 47.1681 361.129 47.7349 357.215C48.3003 353.31 48.8782 349.342 49.1538 348.055C49.8444 344.83 50.3041 341.341 50.3042 338.625C50.3042 337.707 50.2468 336.615 50.189 335.459C50.1352 334.384 50.0828 333.254 50.0757 332.168L50.0737 332.169C49.8434 327.562 49.1529 322.792 48.4898 318.645C47.8279 314.505 47.1903 310.97 47.0728 308.856C46.8427 304.716 45.4618 298.485 44.1323 291.396C42.8049 284.318 41.5328 276.4 41.5327 268.914C41.5327 264.862 42.0533 260.927 42.5728 257.435C43.0934 253.935 43.6098 250.893 43.6099 248.601H43.772L43.6108 248.595C43.8412 241.913 43.2976 237.343 42.688 230.147C42.0583 222.715 40.8822 217.011 39.5864 211.315C38.2906 205.62 36.8734 199.928 35.7642 192.533C35.0709 187.911 34.5506 182.54 34.2329 178.036C33.9158 173.54 33.7994 169.888 33.9165 168.717L33.9282 168.718C34.3942 160.147 35.2907 158.788 36.4566 152.085C37.2041 147.788 39.6417 143.028 41.9312 138.079C44.2025 133.169 46.3334 128.059 46.6011 122.957C46.137 118.622 45.1647 114.814 44.0767 110.814C42.9816 106.789 41.7698 102.568 40.853 97.4346C40.4617 95.2429 40.0483 92.3604 39.521 89.834C39.4653 91.434 39.3341 93.2918 39.2026 95.1201C39.0294 97.5305 38.857 99.8894 38.8569 101.561C38.8569 106.939 38.5684 112.656 38.2798 117.027C38.1355 119.213 37.9906 121.064 37.8823 122.367C37.8282 123.019 37.7831 123.534 37.7515 123.887C37.7357 124.062 37.7238 124.198 37.7153 124.289C37.7111 124.335 37.7078 124.37 37.7056 124.394C37.7045 124.405 37.7032 124.414 37.7026 124.42V124.518C37.7017 124.733 37.6994 125.044 37.6958 125.429C37.6886 126.197 37.6739 127.258 37.645 128.428C37.5873 130.764 37.4719 133.543 37.2398 135.284C36.7684 138.819 34.6304 148.062 32.6138 156.41C31.6048 160.587 30.6253 164.543 29.898 167.455C29.5343 168.911 29.2336 170.106 29.0239 170.938C28.9192 171.352 28.8376 171.677 28.7817 171.897C28.7538 172.008 28.7317 172.093 28.7173 172.149C28.7137 172.163 28.7101 172.176 28.7075 172.187C28.7482 172.92 28.9618 174.187 29.1597 175.4C29.3239 176.407 29.6635 177.258 29.9966 178.068C30.3275 178.874 30.657 179.65 30.7759 180.481C30.8947 181.314 30.799 182.318 30.6665 183.413C30.5332 184.515 30.3605 185.718 30.3149 186.974C30.2677 188.276 30.268 189.947 30.2798 191.293C30.2857 191.966 30.2949 192.557 30.3023 192.98C30.3059 193.192 30.3096 193.362 30.312 193.479C30.3132 193.536 30.3133 193.582 30.314 193.612C30.3143 193.625 30.3148 193.636 30.3149 193.644V193.65C30.3154 193.655 30.3161 193.661 30.3169 193.669C30.3186 193.685 30.3211 193.709 30.3237 193.738C30.329 193.798 30.3361 193.883 30.3413 193.985C30.3517 194.191 30.3563 194.473 30.3355 194.77C30.3146 195.065 30.2677 195.384 30.1694 195.663C30.0719 195.94 29.9157 196.199 29.6636 196.342C29.612 196.371 29.5521 196.386 29.4898 196.38C29.4295 196.374 29.3769 196.348 29.3345 196.317C29.2535 196.259 29.187 196.165 29.1314 196.063C29.0175 195.856 28.9076 195.544 28.8013 195.171C28.5872 194.42 28.372 193.375 28.1626 192.309C27.9526 191.239 27.7481 190.146 27.5523 189.291C27.4543 188.864 27.3595 188.499 27.2691 188.23C27.2238 188.096 27.1809 187.989 27.1411 187.911C27.1214 187.873 27.1034 187.844 27.0884 187.823C27.0812 187.814 27.0745 187.806 27.0698 187.802C27.0663 187.798 27.0637 187.796 27.063 187.795C27.0304 187.773 26.9852 187.764 26.9097 187.791C26.8287 187.82 26.7267 187.887 26.6099 187.995C26.3771 188.211 26.1194 188.558 25.8774 188.956C25.6367 189.353 25.4172 189.792 25.2583 190.188C25.2555 190.195 25.2523 190.202 25.2495 190.209C25.2842 190.33 25.3745 190.526 25.523 190.79C25.6861 191.08 25.9078 191.436 26.1665 191.835C26.6848 192.635 27.3458 193.598 27.9819 194.553C28.6159 195.504 29.2259 196.448 29.6333 197.198C29.8363 197.572 29.9936 197.906 30.0776 198.173C30.1194 198.305 30.1458 198.431 30.147 198.541C30.1481 198.649 30.1241 198.768 30.0376 198.854L29.9536 198.771C29.9607 198.783 29.9691 198.794 29.9761 198.805C30.2129 199.178 30.3997 199.512 30.5044 199.778C30.5564 199.911 30.5923 200.037 30.6001 200.147C30.6078 200.257 30.5887 200.379 30.4985 200.47L30.4995 200.471C30.3848 200.585 30.2141 200.59 30.0796 200.57C29.935 200.549 29.7733 200.492 29.6196 200.415C29.5903 200.4 29.5603 200.384 29.5308 200.367C29.579 200.56 29.5732 200.77 29.5396 200.953C29.5103 201.112 29.4598 201.266 29.3921 201.393C29.3275 201.513 29.2343 201.632 29.1128 201.688C29.2451 201.944 29.3481 202.175 29.4058 202.37C29.4415 202.491 29.4626 202.608 29.4595 202.713C29.4562 202.818 29.4266 202.927 29.3442 203.01C29.2564 203.097 29.1402 203.12 29.0327 203.111C28.9274 203.103 28.8124 203.065 28.6958 203.012C28.4606 202.904 28.1738 202.714 27.8608 202.472C27.2321 201.985 26.4614 201.264 25.7095 200.498C24.9567 199.731 24.2176 198.912 23.6519 198.227C23.3692 197.884 23.128 197.572 22.9497 197.316C22.8609 197.189 22.7857 197.073 22.729 196.973C22.6739 196.875 22.6297 196.781 22.6099 196.702C22.4927 196.233 22.2597 194.837 22.0015 193.402C21.7409 191.955 21.4543 190.468 21.228 189.789C20.9592 188.982 20.9638 188.091 21.0591 187.238C21.1538 186.392 21.3437 185.546 21.4526 184.865C21.9139 181.982 22.375 178.579 22.7212 175.896C22.8942 174.555 23.0382 173.394 23.1392 172.568C23.1896 172.156 23.2293 171.826 23.2564 171.601C23.2698 171.488 23.2806 171.401 23.2876 171.342C23.291 171.313 23.2937 171.29 23.2954 171.275C23.2963 171.268 23.2969 171.262 23.2974 171.258C23.2976 171.256 23.2983 171.255 23.2983 171.254V171.253L23.312 171.254C23.3139 171.223 23.3166 171.189 23.3189 171.152C23.3325 170.93 23.3525 170.602 23.3784 170.185C23.4303 169.348 23.5052 168.147 23.5972 166.692C23.7811 163.782 24.033 159.849 24.3071 155.767C24.855 147.606 25.491 138.826 25.8384 136.394C26.1329 134.332 26.7099 131.096 27.2134 128.38C27.4652 127.021 27.6992 125.791 27.8696 124.9C27.9548 124.456 28.0246 124.095 28.0728 123.846C28.0967 123.722 28.1157 123.625 28.1284 123.56C28.1327 123.537 28.1362 123.518 28.1392 123.503C28.138 123.45 28.1368 123.387 28.1353 123.316C28.1294 123.049 28.1218 122.656 28.1128 122.151C28.0948 121.141 28.0725 119.683 28.0581 117.894C28.0292 114.315 28.0296 109.408 28.145 104.097V104.09C28.4909 98.7867 28.4339 92.3307 28.4917 86.7568C28.5206 83.9725 28.5781 81.4076 28.73 79.3213C28.8059 78.2782 28.9057 77.3518 29.0376 76.5762C29.1692 75.8028 29.3343 75.1683 29.5454 74.7158C31.1925 71.187 34.7275 70.4692 37.4624 69.5605C37.887 69.4163 38.4961 69.2062 39.2319 68.9424C40.7056 68.4141 42.6898 67.6706 44.7319 66.8105C46.775 65.9501 48.873 64.9747 50.5757 63.9814C51.427 63.4848 52.1767 62.9852 52.77 62.4961C53.3654 62.0053 53.7929 61.5327 54.0142 61.0928C54.914 59.3034 55.2594 57.0796 55.3765 54.8877C55.4829 52.894 55.4031 50.9502 55.3872 49.3906C54.0341 47.5621 52.903 45.1808 52.0689 42.2783C51.3084 41.8121 50.6503 41.1821 50.1509 40.2666C49.617 39.2878 49.2673 37.9934 49.1509 36.2471C49.12 35.7838 49.1044 35.3305 49.1206 34.9258C49.1367 34.5235 49.1839 34.1573 49.2866 33.874C49.3888 33.5924 49.5596 33.3579 49.8403 33.2881C50.0646 33.2326 50.3197 33.2942 50.603 33.4512C50.5281 32.3555 50.4843 31.2188 50.4712 30.042L50.4673 29.3115C50.4673 18.858 56.0237 15.0001 63.1626 15ZM70.3735 49.7891C68.3968 52.3848 65.9348 53.779 63.1626 53.7793C60.3547 53.7792 57.7927 52.4209 55.7163 49.8193C55.7399 51.2917 55.7978 53.0845 55.7007 54.9043C55.5829 57.1109 55.2344 59.3895 54.3042 61.2393C54.0532 61.738 53.5851 62.2441 52.9761 62.7461C52.3645 63.2501 51.5988 63.7591 50.7388 64.2607C49.0186 65.2641 46.9064 66.2466 44.8579 67.1094C42.8086 67.9725 40.8185 68.7186 39.3413 69.248C38.617 69.5077 38.0152 69.715 37.5903 69.8594L37.5913 69.8604C37.5759 69.8655 37.5599 69.8699 37.5444 69.875C37.3418 69.9438 37.1817 69.9977 37.0718 70.0342C37.0152 70.0529 36.9713 70.0675 36.9419 70.0771C36.9276 70.0819 36.9162 70.0855 36.9087 70.0879C36.9052 70.089 36.9018 70.0902 36.8999 70.0908L36.898 70.0918L36.895 70.083C34.2514 70.9199 31.2898 71.7456 29.8394 74.8535C29.6467 75.2665 29.4869 75.8662 29.3569 76.6299C29.2274 77.3915 29.1288 78.307 29.0532 79.3447C28.9022 81.4203 28.8448 83.9768 28.8159 86.7607C28.7619 91.9764 28.8092 97.99 28.5298 103.101L28.4692 104.11C28.354 109.415 28.3535 114.315 28.3823 117.891C28.3968 119.679 28.419 121.136 28.437 122.146C28.446 122.65 28.4536 123.043 28.4595 123.31C28.4613 123.392 28.4621 123.463 28.4634 123.521L28.4663 123.521L28.4653 123.522C28.4652 123.523 28.4647 123.525 28.4644 123.526C28.4651 123.56 28.4657 123.589 28.4663 123.613C28.4671 123.647 28.4678 123.673 28.4683 123.69C28.4685 123.699 28.4691 123.706 28.4692 123.71V123.717L28.4273 123.718C28.4169 123.771 28.4052 123.835 28.3911 123.907C28.343 124.156 28.2731 124.517 28.188 124.962C28.0176 125.852 27.7844 127.082 27.5327 128.439C27.0291 131.157 26.4522 134.385 26.1587 136.439C25.8136 138.856 25.1798 147.619 24.6314 155.788C24.3573 159.87 24.1043 163.803 23.9204 166.713C23.8285 168.168 23.7535 169.368 23.7017 170.204C23.6758 170.622 23.6558 170.949 23.6421 171.172C23.6353 171.283 23.63 171.369 23.6265 171.426C23.6247 171.454 23.6235 171.477 23.6226 171.491C23.6222 171.498 23.6218 171.504 23.6216 171.508V171.513L23.5933 171.511C23.5886 171.549 23.5843 171.592 23.5786 171.64C23.5516 171.866 23.5119 172.195 23.4614 172.607C23.3604 173.434 23.2156 174.596 23.0425 175.938C22.6962 178.621 22.235 182.028 21.773 184.916C21.6589 185.629 21.4754 186.434 21.3814 187.274C21.2881 188.109 21.2887 188.945 21.5357 189.687C21.771 190.393 22.062 191.907 22.3208 193.345C22.5817 194.794 22.8106 196.168 22.9243 196.623C22.9333 196.659 22.9599 196.722 23.0112 196.812C23.0612 196.901 23.1297 197.009 23.2153 197.132C23.3867 197.378 23.6223 197.682 23.9019 198.021C24.4611 198.698 25.1938 199.51 25.9409 200.271C26.6888 201.034 27.4484 201.742 28.0601 202.215C28.3669 202.452 28.6296 202.625 28.8306 202.717C28.931 202.763 29.0065 202.784 29.0581 202.788C29.0826 202.79 29.0981 202.787 29.106 202.785C29.1125 202.783 29.115 202.781 29.1157 202.78C29.1203 202.775 29.1336 202.757 29.1353 202.703C29.1369 202.647 29.1251 202.567 29.0942 202.462C29.0325 202.253 28.9055 201.978 28.7271 201.653C28.3708 201.005 27.8266 200.188 27.2495 199.352C26.6748 198.518 26.0661 197.662 25.5894 196.947C25.3509 196.589 25.1428 196.263 24.9868 195.988C24.8341 195.72 24.7196 195.482 24.6851 195.31C24.5655 194.712 24.5664 193.885 24.5952 193.107C24.6245 192.317 24.6821 191.582 24.6821 191.123C24.6822 190.859 24.7945 190.472 24.9575 190.066C25.1232 189.654 25.3506 189.199 25.6001 188.788C25.8485 188.379 26.1244 188.003 26.3892 187.758C26.5206 187.636 26.6598 187.537 26.7993 187.486C26.9438 187.434 27.1025 187.432 27.2427 187.525C27.3224 187.579 27.3822 187.672 27.4292 187.764C27.4793 187.861 27.528 187.985 27.5757 188.127C27.6714 188.411 27.7691 188.788 27.8677 189.219C28.0651 190.08 28.2719 191.181 28.481 192.246C28.6908 193.314 28.9031 194.347 29.1128 195.082C29.2182 195.451 29.3204 195.734 29.4155 195.907C29.4597 195.988 29.4964 196.03 29.5191 196.049C29.6659 195.958 29.7812 195.79 29.8638 195.556C29.9486 195.315 29.9924 195.028 30.0122 194.747C30.0319 194.467 30.0271 194.2 30.0171 194.002C30.0121 193.904 30.0054 193.822 30.0005 193.767C29.998 193.739 29.9961 193.717 29.9946 193.702C29.9939 193.695 29.9931 193.689 29.9927 193.686V193.681L29.9917 193.673V193.663C29.9916 193.661 29.9908 193.657 29.9907 193.653C29.9906 193.646 29.9911 193.634 29.9907 193.619C29.9901 193.589 29.989 193.543 29.9878 193.484C29.9854 193.368 29.9817 193.198 29.978 192.986C29.9706 192.563 29.9615 191.97 29.9556 191.296C29.9437 189.949 29.9442 188.272 29.9917 186.962C30.0379 185.689 30.212 184.467 30.3442 183.374C30.4774 182.274 30.5665 181.311 30.4546 180.527C30.3426 179.744 30.0321 179.007 29.6968 178.191C29.3636 177.381 29.0101 176.499 28.8394 175.452C28.6408 174.235 28.4182 172.913 28.3823 172.155H28.3814V172.154C28.3816 172.153 28.3819 172.152 28.3823 172.15C28.3792 172.084 28.3755 172.021 28.3755 171.964H28.4302C28.441 171.922 28.4534 171.873 28.4673 171.818C28.5232 171.598 28.6047 171.273 28.7095 170.857C28.9191 170.027 29.22 168.832 29.5835 167.377C30.3107 164.465 31.2906 160.509 32.2993 156.334C34.318 147.978 36.4499 138.755 36.9185 135.241C37.148 133.52 37.2631 130.758 37.3208 128.42C37.3496 127.253 37.3644 126.193 37.3716 125.426C37.3752 125.042 37.3775 124.73 37.3784 124.516V124.183H37.3989C37.4066 124.098 37.4164 123.989 37.4282 123.857C37.4598 123.506 37.505 122.991 37.5591 122.34C37.6672 121.038 37.8114 119.19 37.9556 117.007C38.244 112.639 38.5327 106.929 38.5327 101.561C38.5328 99.8748 38.7065 97.5018 38.8794 95.0967C39.0527 92.6868 39.2251 90.2428 39.2251 88.4033H39.5493C39.5493 88.4699 39.5468 88.5374 39.5464 88.6055L39.5806 88.5977C40.238 91.3729 40.7231 94.8618 41.1724 97.3779C42.086 102.494 43.2929 106.7 44.3892 110.729C45.4676 114.694 46.4376 118.489 46.9097 122.802L46.9341 122.804C46.932 122.85 46.9286 122.897 46.9263 122.943C46.9287 122.966 46.9317 122.989 46.9341 123.012L46.9224 123.013C46.6422 128.172 44.4897 133.319 42.2251 138.215C39.9235 143.19 37.5141 147.897 36.7759 152.14C35.5926 158.943 34.6997 160.214 34.2388 168.972L34.2212 168.971C34.1386 170.308 34.2568 173.768 34.5562 178.013C34.8734 182.511 35.3929 187.874 36.0845 192.484C37.1915 199.864 38.6057 205.542 39.9028 211.243C41.2 216.944 42.3787 222.666 43.0103 230.12C43.6191 237.306 44.1653 241.9 43.9341 248.606C43.9332 250.929 43.4116 254.003 42.8941 257.482C42.3749 260.973 41.8569 264.888 41.8569 268.914C41.857 276.368 43.1237 284.261 44.4507 291.337C45.7757 298.402 47.1653 304.669 47.397 308.838C47.5133 310.93 48.1454 314.437 48.8101 318.594C49.4628 322.676 50.1432 327.374 50.3853 331.931H50.398C50.398 333.08 50.4554 334.288 50.5132 335.442C50.5709 336.594 50.6284 337.697 50.6284 338.625C50.6283 341.371 50.1647 344.885 49.4712 348.123C49.1986 349.396 48.6219 353.347 48.0552 357.261C47.4898 361.165 46.933 365.035 46.7007 366.127C46.6618 366.311 46.7166 366.554 46.8833 366.853C47.0485 367.148 47.3118 367.477 47.6509 367.824C48.3289 368.517 49.292 369.262 50.3169 369.93C51.3412 370.596 52.4215 371.181 53.3325 371.558C53.7884 371.746 54.1981 371.88 54.5337 371.947C54.8771 372.016 55.1135 372.008 55.2466 371.947C56.4805 371.386 57.5566 370.322 58.3247 369.188C59.0954 368.049 59.5373 366.869 59.5376 366.094C59.5376 365.011 59.4226 362.362 59.3071 359.37C59.1918 356.382 59.0767 353.055 59.0767 350.628C59.0767 345.904 58.7878 342.694 58.4995 339.849C58.2182 337.072 57.9371 334.634 57.9233 331.478L57.9224 331.479C57.114 317.505 57.5173 306.244 58.1235 297.007C58.7302 287.763 59.5375 280.564 59.5376 274.685C59.5376 271.978 59.2501 269.856 58.9614 267.564C58.6727 265.273 58.3834 262.815 58.3833 259.45C58.3833 254.37 58.4079 253.712 58.6148 249.329H58.6157C58.6256 247.207 58.7936 245.293 58.9614 243.307C59.1345 241.259 59.3071 239.129 59.3071 236.598C59.3071 233.239 59.4495 229.366 59.6069 225.098C59.7644 220.828 59.9371 216.159 59.9995 211.204C60.091 203.943 60.4372 196.321 60.645 189.714C60.844 183.391 60.9142 178.005 60.5191 174.734H60.3921V174.41H60.478C60.4728 174.372 60.4687 174.333 60.4634 174.296L60.7837 174.251C60.7912 174.303 60.797 174.357 60.8042 174.41H64.9448C64.951 174.364 64.956 174.318 64.9624 174.273L65.2827 174.318C64.8236 177.533 64.893 183.122 65.1011 189.736C65.3089 196.343 65.6551 203.965 65.7466 211.227C65.809 216.182 65.9817 220.85 66.1392 225.12C66.2966 229.389 66.439 233.262 66.439 236.62C66.439 239.152 66.6116 241.281 66.7847 243.329C66.9525 245.316 67.1205 247.229 67.1304 249.352L67.2544 252.067C67.3486 254.34 67.3618 255.662 67.3618 259.473C67.3618 262.837 67.0724 265.295 66.7837 267.587C66.495 269.879 66.2075 272.001 66.2075 274.707C66.2076 280.586 67.0149 287.785 67.6216 297.029C68.2278 306.267 68.6311 317.528 67.8228 331.501V331.5C67.809 334.657 67.5279 337.095 67.2466 339.871C66.9583 342.716 66.6695 345.926 66.6694 350.65C66.6694 353.078 66.5543 356.405 66.439 359.393C66.3235 362.384 66.2085 365.034 66.2085 366.116C66.2088 366.892 66.6507 368.072 67.4214 369.21C68.1895 370.344 69.2656 371.409 70.4995 371.97C70.6326 372.03 70.8692 372.038 71.2124 371.97C71.548 371.903 71.9579 371.768 72.4136 371.58C73.3245 371.204 74.4051 370.619 75.4292 369.952C76.454 369.285 77.4172 368.54 78.0952 367.847C78.4343 367.5 78.6977 367.17 78.8628 366.875C79.0295 366.577 79.0844 366.334 79.0454 366.149C78.8131 365.058 78.2563 361.188 77.6909 357.283C77.1242 353.369 76.5475 349.419 76.2749 348.146C75.5814 344.907 75.1178 341.393 75.1177 338.647C75.1177 337.719 75.1752 336.617 75.2329 335.465C75.2907 334.311 75.3481 333.102 75.3482 331.953H75.3608C75.6029 327.397 76.2833 322.699 76.936 318.616C77.6006 314.459 78.2329 310.952 78.3491 308.86C78.5809 304.691 79.9704 298.424 81.2954 291.359C82.6224 284.284 83.8891 276.39 83.8892 268.937C83.8891 264.91 83.3712 260.995 82.8521 257.505C82.3344 254.025 81.8137 250.951 81.813 248.628L81.811 248.629C81.5798 241.923 82.1261 237.329 82.7349 230.143C83.3663 222.69 84.4595 216.964 85.6704 211.257C86.8813 205.55 88.2087 199.865 89.3159 192.484C90.6696 183.46 91.3596 171.564 91.3892 169.113C91.3598 159.641 89.9974 154.616 88.8589 150.773L88.8569 150.767C87.3612 144.669 85.0034 140.009 83.0103 135.705C81.0504 131.473 79.4402 127.576 79.3901 123.016H79.3892C79.3895 123.011 79.3898 123.006 79.3901 123.001C79.3895 122.933 79.3882 122.865 79.3882 122.797H79.4087C79.7696 118.597 80.6852 114.748 81.7368 110.703C82.8072 106.586 84.0164 102.265 84.9302 97.1475C85.4183 94.4137 86.084 91.1499 86.314 88.6201H86.3169C86.3163 88.5431 86.3149 88.4667 86.3149 88.3916H86.6392C86.6392 90.2311 86.8116 92.6751 86.9849 95.085C87.1578 97.49 87.3315 99.8631 87.3316 101.549C87.3316 106.917 87.6203 112.627 87.9087 116.995C88.0529 119.178 88.1971 121.026 88.3052 122.328C88.3592 122.979 88.4045 123.494 88.436 123.846C88.4478 123.977 88.4577 124.086 88.4653 124.171H88.4858V124.504C88.4867 124.719 88.4891 125.031 88.4927 125.414C88.4999 126.182 88.5147 127.241 88.5435 128.408C88.6012 130.746 88.7163 133.508 88.9458 135.229C89.4144 138.743 91.5464 147.966 93.5649 156.322C94.5736 160.498 95.5536 164.454 96.2808 167.365C96.6442 168.82 96.9452 170.015 97.1548 170.846C97.2596 171.261 97.3411 171.586 97.397 171.807C97.4109 171.862 97.4233 171.91 97.4341 171.952H97.4878C97.4878 172.009 97.484 172.072 97.481 172.138V172.139C97.4814 172.14 97.4826 172.142 97.4829 172.143V172.144H97.481C97.4451 172.901 97.2225 174.223 97.0239 175.44C96.8532 176.487 96.4997 177.369 96.1665 178.18C95.8313 178.995 95.5208 179.732 95.4087 180.516C95.2968 181.299 95.386 182.262 95.5191 183.362C95.6513 184.455 95.8254 185.677 95.8716 186.95C95.9191 188.26 95.9196 189.937 95.9077 191.284C95.9018 191.958 95.8927 192.551 95.8853 192.975C95.8816 193.186 95.8779 193.356 95.8755 193.473C95.8743 193.531 95.8732 193.577 95.8726 193.607C95.8722 193.622 95.8727 193.634 95.8726 193.642C95.8725 193.645 95.8718 193.649 95.8716 193.651V193.661L95.8706 193.669V193.674C95.8702 193.677 95.8694 193.684 95.8687 193.69C95.8672 193.705 95.8652 193.727 95.8628 193.755C95.8579 193.811 95.8512 193.892 95.8462 193.99C95.8362 194.188 95.8314 194.456 95.8511 194.735C95.8709 195.016 95.9148 195.304 95.9995 195.544C96.0821 195.778 96.1974 195.947 96.3442 196.037C96.367 196.018 96.4037 195.976 96.4478 195.896C96.5429 195.722 96.6452 195.439 96.7505 195.07C96.9602 194.335 97.1726 193.303 97.3823 192.234C97.5914 191.17 97.7983 190.068 97.9956 189.207C98.0942 188.777 98.1919 188.4 98.2876 188.115C98.3352 187.974 98.384 187.85 98.4341 187.752C98.4811 187.66 98.5409 187.567 98.6206 187.514C98.7607 187.421 98.9196 187.423 99.064 187.475C99.2034 187.525 99.3428 187.624 99.4741 187.746C99.7388 187.992 100.015 188.367 100.263 188.776C100.513 189.187 100.74 189.643 100.906 190.055C101.069 190.46 101.181 190.847 101.181 191.111C101.181 191.57 101.239 192.305 101.268 193.096C101.297 193.874 101.298 194.7 101.178 195.298C101.144 195.471 101.029 195.708 100.876 195.977C100.72 196.251 100.512 196.578 100.274 196.936C99.7972 197.651 99.1884 198.507 98.6138 199.34C98.0367 200.177 97.4925 200.993 97.1362 201.642C96.9579 201.966 96.8309 202.241 96.7691 202.45C96.7383 202.555 96.7264 202.635 96.728 202.691C96.7289 202.719 96.7328 202.737 96.7368 202.749L96.7476 202.769C96.7485 202.769 96.7511 202.772 96.7573 202.773C96.7653 202.776 96.7809 202.778 96.8052 202.776C96.8568 202.772 96.9324 202.751 97.0327 202.705C97.2337 202.613 97.4965 202.44 97.8032 202.203C98.4149 201.73 99.1745 201.022 99.9224 200.26C100.669 199.498 101.402 198.686 101.961 198.009C102.241 197.67 102.477 197.366 102.648 197.12C102.734 196.997 102.802 196.889 102.852 196.801C102.903 196.71 102.93 196.647 102.939 196.611C103.053 196.156 103.282 194.782 103.542 193.333C103.801 191.895 104.092 190.381 104.328 189.675C104.575 188.934 104.575 188.097 104.482 187.263C104.388 186.422 104.204 185.617 104.09 184.904C103.628 182.017 103.167 178.61 102.821 175.926C102.648 174.584 102.503 173.422 102.402 172.596C102.351 172.183 102.312 171.854 102.285 171.628C102.279 171.581 102.275 171.537 102.27 171.499L102.243 171.501V171.496C102.242 171.493 102.242 171.486 102.242 171.479C102.241 171.465 102.24 171.442 102.238 171.414C102.234 171.357 102.229 171.271 102.222 171.16C102.208 170.938 102.188 170.61 102.163 170.192C102.111 169.356 102.036 168.156 101.944 166.701C101.76 163.791 101.507 159.859 101.233 155.776C100.684 147.607 100.051 138.844 99.7056 136.428C99.4121 134.374 98.8351 131.145 98.3316 128.428C98.0799 127.07 97.8467 125.84 97.6763 124.95C97.5912 124.506 97.5213 124.144 97.4732 123.896C97.4591 123.823 97.4473 123.759 97.437 123.706L97.395 123.705V123.698C97.3952 123.694 97.3958 123.687 97.396 123.679C97.3964 123.661 97.3972 123.635 97.398 123.602C97.3985 123.577 97.3992 123.548 97.3999 123.515C97.3996 123.513 97.3991 123.512 97.3989 123.511L97.398 123.51L97.4009 123.509C97.4022 123.451 97.403 123.38 97.4048 123.298C97.4106 123.031 97.4182 122.638 97.4273 122.134C97.4453 121.124 97.4675 119.667 97.4819 117.879C97.5108 114.304 97.5102 109.403 97.395 104.099L97.3345 103.089C97.055 97.9783 97.1024 91.9646 97.0483 86.749C97.0195 83.9652 96.9621 81.4085 96.811 79.333C96.7355 78.2954 96.6368 77.3797 96.5073 76.6182C96.3775 75.8547 96.2175 75.2548 96.0249 74.8418C94.4458 71.4581 91.0739 70.7822 88.273 69.8486L88.2798 69.8252C87.872 69.7053 87.3453 69.5482 86.7329 69.3584C85.2342 68.8939 83.2145 68.2344 81.1362 67.458C79.059 66.682 76.9167 65.7869 75.1743 64.8486C74.3035 64.3796 73.5282 63.8963 72.9097 63.4111C72.2937 62.9278 71.8197 62.4319 71.5679 61.9316C70.6359 60.0783 70.3443 57.6229 70.2817 55.2461C70.2504 54.0554 70.2772 52.8773 70.311 51.7979C70.3337 51.0757 70.3588 50.3987 70.3735 49.7891ZM24.9224 194.566C24.9377 194.816 24.9634 195.046 25.0034 195.246C25.0266 195.362 25.1146 195.558 25.2681 195.828C25.4184 196.093 25.6218 196.412 25.8589 196.768C26.3341 197.48 26.9379 198.328 27.5171 199.168C28.0937 200.004 28.6462 200.833 29.0112 201.497C29.0423 201.554 29.0715 201.61 29.1001 201.665L28.9771 201.395C29.0033 201.382 29.0533 201.337 29.106 201.239C29.1556 201.147 29.1981 201.026 29.2222 200.896C29.2725 200.622 29.2345 200.367 29.1118 200.235C28.9263 200.036 28.5784 199.56 28.2251 199.062C27.8666 198.555 27.4961 198.018 27.2524 197.682C27.1331 197.517 26.9062 197.232 26.6314 196.887C26.3581 196.543 26.0398 196.141 25.7417 195.747C25.4442 195.354 25.1629 194.963 24.9663 194.643C24.9508 194.617 24.937 194.591 24.9224 194.566ZM100.897 194.631C100.7 194.951 100.42 195.342 100.123 195.735C99.8246 196.129 99.5062 196.531 99.2329 196.875C98.9585 197.22 98.7313 197.504 98.6118 197.669C98.3682 198.005 97.9977 198.544 97.6392 199.05C97.286 199.548 96.9381 200.024 96.7524 200.224C96.6297 200.355 96.592 200.61 96.6421 200.883C96.6662 201.013 96.7086 201.135 96.7583 201.228C96.8111 201.326 96.861 201.371 96.8872 201.383L96.7691 201.642C96.7957 201.591 96.8232 201.538 96.8521 201.485C97.2171 200.821 97.7697 199.992 98.3462 199.156C98.9253 198.317 99.5292 197.469 100.004 196.756C100.241 196.4 100.445 196.081 100.595 195.816C100.749 195.547 100.837 195.35 100.86 195.234C100.9 195.034 100.926 194.804 100.941 194.555C100.926 194.579 100.912 194.606 100.897 194.631ZM24.9194 193.12C24.9103 193.366 24.9053 193.614 24.9048 193.854C24.9189 193.865 24.9337 193.875 24.9478 193.887C25.0527 193.971 25.1716 194.09 25.2964 194.228C25.547 194.504 25.84 194.878 26.1294 195.269C26.7087 196.051 27.2872 196.919 27.5181 197.266C27.7462 197.608 28.0894 198.065 28.4087 198.5C28.7224 198.928 29.022 199.346 29.145 199.592C29.2379 199.777 29.4896 199.987 29.7642 200.124C29.8984 200.191 30.0263 200.235 30.1265 200.25C30.2325 200.266 30.267 200.243 30.27 200.241C30.2727 200.237 30.2802 200.218 30.2769 200.17C30.2723 200.106 30.2493 200.015 30.2026 199.896C30.1095 199.66 29.9364 199.347 29.7026 198.979C29.2358 198.242 28.5442 197.309 27.8198 196.356C27.0976 195.407 26.3418 194.437 25.7544 193.635C25.4607 193.234 25.2065 192.871 25.0181 192.571C24.9948 192.534 24.973 192.497 24.9517 192.462C24.9406 192.676 24.9277 192.898 24.9194 193.12ZM100.845 192.56C100.657 192.859 100.403 193.222 100.109 193.623C99.5215 194.425 98.7656 195.395 98.0435 196.345C97.3192 197.297 96.6275 198.231 96.1607 198.967C95.9269 199.335 95.7539 199.648 95.6607 199.885C95.614 200.003 95.5911 200.095 95.5864 200.158C95.5831 200.205 95.5905 200.224 95.5933 200.229L95.5942 200.23C95.5995 200.234 95.6356 200.253 95.7378 200.238C95.8379 200.223 95.9662 200.18 96.1001 200.113C96.3747 199.976 96.6266 199.765 96.7192 199.58C96.8425 199.334 97.141 198.916 97.4546 198.488C97.7739 198.053 98.1172 197.596 98.3452 197.254C98.5763 196.907 99.1556 196.039 99.7349 195.257C100.024 194.866 100.317 194.492 100.568 194.216C100.693 194.078 100.812 193.961 100.917 193.876C100.93 193.865 100.945 193.854 100.959 193.844C100.958 193.603 100.953 193.355 100.944 193.108C100.936 192.887 100.923 192.664 100.912 192.45C100.89 192.485 100.868 192.523 100.845 192.56ZM25.0913 190.667C25.0368 190.855 25.0064 191.011 25.0064 191.123C25.0063 191.306 24.9966 191.537 24.9839 191.796C24.996 191.846 25.0247 191.921 25.0747 192.021C25.1281 192.127 25.2015 192.254 25.2925 192.398C25.4748 192.688 25.7238 193.044 26.0161 193.443C26.6013 194.242 27.3519 195.206 28.0776 196.16C28.7267 197.013 29.3541 197.862 29.8198 198.568C29.8203 198.561 29.8228 198.553 29.8228 198.545C29.8221 198.48 29.8054 198.389 29.7681 198.271C29.6936 198.034 29.5483 197.722 29.3482 197.354C28.9485 196.618 28.3467 195.685 27.7124 194.732C27.0804 193.784 26.4144 192.813 25.895 192.012C25.6352 191.611 25.409 191.248 25.2407 190.949C25.1852 190.851 25.1353 190.755 25.0913 190.667ZM100.623 190.938C100.454 191.237 100.228 191.599 99.9683 192C99.4489 192.801 98.7829 193.772 98.1509 194.721C97.5167 195.673 96.9148 196.606 96.5151 197.342C96.3151 197.71 96.1697 198.023 96.0952 198.259C96.058 198.377 96.0413 198.469 96.0405 198.533C96.0405 198.542 96.0429 198.55 96.0435 198.557C96.5092 197.851 97.1367 197.002 97.7857 196.148C98.5114 195.194 99.2621 194.23 99.8472 193.432C100.139 193.033 100.389 192.677 100.571 192.387C100.662 192.242 100.735 192.115 100.789 192.009C100.839 191.909 100.867 191.835 100.879 191.784C100.867 191.525 100.857 191.295 100.857 191.111C100.857 190.999 100.826 190.843 100.772 190.655C100.728 190.743 100.678 190.839 100.623 190.938ZM63.1626 15.3242C59.6491 15.3243 56.5689 16.2739 54.3667 18.4658C52.1653 20.6574 50.7915 24.1403 50.7915 29.3115C50.7915 34.297 51.3552 38.5668 52.3462 42.0674C52.3622 42.0767 52.378 42.0875 52.3941 42.0967L52.3677 42.1416C52.9266 44.0978 53.6191 45.8125 54.4224 47.2754C54.7489 47.87 55.0942 48.4218 55.4546 48.9316H55.7066C55.7066 49.0462 55.7094 49.1641 55.7105 49.2842C57.7847 52.0462 60.3611 53.455 63.1626 53.4551C65.9289 53.4547 68.4061 52.0045 70.3823 49.2354C70.3835 49.1317 70.3862 49.0301 70.3862 48.9316H70.5942C70.9719 48.374 71.331 47.7667 71.6685 47.1104C72.3762 45.7339 72.9869 44.1467 73.4898 42.3643L73.4692 42.3271C73.4822 42.3197 73.4945 42.3103 73.5073 42.3027C74.2058 39.8078 74.69 36.9313 74.9194 33.7109L74.8442 33.5986C74.8733 33.5792 74.9026 33.5605 74.9312 33.543C75.0234 32.1915 75.0728 30.7801 75.0728 29.3115C75.0728 24.1332 73.8101 20.6484 71.7222 18.459C69.6367 16.2726 66.6752 15.3244 63.1626 15.3242ZM75.7134 33.6387C75.6086 33.6126 75.4557 33.6313 75.2398 33.7412C75.0199 36.8214 74.5718 39.5952 73.9204 42.0273C75.1913 41.0696 75.9516 39.3528 76.1577 36.2617C76.1882 35.8039 76.2035 35.3628 76.188 34.9746C76.1723 34.5843 76.1252 34.2569 76.0396 34.0205C75.9534 33.7834 75.8409 33.6706 75.7134 33.6387ZM50.6079 33.832C50.274 33.6094 50.0553 33.5689 49.9185 33.6025C49.7908 33.6343 49.6786 33.7468 49.5923 33.9844C49.5066 34.2209 49.4595 34.5479 49.4439 34.9385C49.4283 35.3268 49.4436 35.7676 49.4741 36.2256C49.5885 37.9414 49.9313 39.1859 50.436 40.1113C50.8381 40.8484 51.3478 41.3867 51.936 41.8027C51.2998 39.4554 50.8524 36.7819 50.6294 33.7988L50.6079 33.832Z" fill="#000C40"/>
</g>
</g>
<defs>
<filter id="filter0_d_0_22" x="0" y="0" width="125" height="258" filterUnits="userSpaceOnUse" color-interpolation-filters="sRGB">
<feFlood flood-opacity="0" result="BackgroundImageFix"/>
<feColorMatrix in="SourceAlpha" type="matrix" values="0 0 0 0 0 0 0 0 0 0 0 0 0 0 0 0 0 0 127 0" result="hardAlpha"/>
<feMorphology radius="16" operator="erode" in="SourceAlpha" result="effect1_dropShadow_0_22"/>
<feOffset dy="10"/>
<feGaussianBlur stdDeviation="12"/>
<feComposite in2="hardAlpha" operator="out"/>
<feColorMatrix type="matrix" values="0 0 0 0 0 0 0 0 0 0 0 0 0 0 0 0 0 0 0.25 0"/>
<feBlend mode="normal" in2="BackgroundImageFix" result="effect1_dropShadow_0_22"/>
<feBlend mode="normal" in="SourceGraphic" in2="effect1_dropShadow_0_22" result="shape"/>
</filter>
<clipPath id="clip0_0_22">
<rect x="8" width="109" height="240" rx="3" fill="white"/>
</clipPath>
</defs>
</svg>
