<svg preserveAspectRatio="none" width="100%" height="100%" overflow="visible" style="display: block;" viewBox="0 0 20 20" fill="none" xmlns="http://www.w3.org/2000/svg">
<g id="Icon" filter="url(#filter0_g_0_34)">
<path id="Vector" d="M16.6667 17.5C16.6667 15.7319 15.9643 14.0362 14.714 12.786C13.4638 11.5357 11.7681 10.8333 10 10.8333M10 10.8333C8.23189 10.8333 6.5362 11.5357 5.28595 12.786C4.03571 14.0362 3.33333 15.7319 3.33333 17.5M10 10.8333C10.8841 10.8333 11.7319 10.4821 12.357 9.85702C12.9821 9.2319 13.3333 8.38406 13.3333 7.5C13.3333 6.61595 12.9821 5.7681 12.357 5.14298C11.7319 4.51786 10.8841 4.16667 10 4.16667C9.11595 4.16667 8.2681 4.51786 7.64298 5.14298C7.01786 5.7681 6.66667 6.61595 6.66667 7.5C6.66667 8.38406 7.01786 9.2319 7.64298 9.85702C8.2681 10.4821 9.11595 10.8333 10 10.8333Z" stroke="#F2F2F2" stroke-width="1.66667" stroke-linecap="round" stroke-linejoin="round"/>
</g>
<defs>
<filter id="filter0_g_0_34" x="-0.5" y="-0.5" width="21" height="21" filterUnits="userSpaceOnUse" color-interpolation-filters="sRGB">
<feFlood flood-opacity="0" result="BackgroundImageFix"/>
<feBlend mode="normal" in="SourceGraphic" in2="BackgroundImageFix" result="shape"/>
<feTurbulence type="fractalNoise" baseFrequency="0.25 0.25" numOctaves="3" seed="4608" />
<feDisplacementMap in="shape" scale="1" xChannelSelector="R" yChannelSelector="G" result="displacedImage" width="100%" height="100%" />
<feMerge result="effect1_texture_0_34">
<feMergeNode in="displacedImage"/>
</feMerge>
</filter>
</defs>
</svg>
