<svg preserveAspectRatio="none" width="100%" height="100%" overflow="visible" style="display: block;" viewBox="0 0 125 258" fill="none" xmlns="http://www.w3.org/2000/svg">
<g id="fitscore" filter="url(#filter0_d_0_21)">
<g clip-path="url(#clip0_0_21)">
<rect x="8" width="109" height="240" rx="3" fill="#FCFDFE"/>
<path id="&#235;&#167;&#136;&#235;&#132;&#164;&#237;&#130;&#185;" d="M63.1616 -125C70.3006 -125 75.396 -121.142 75.396 -110.688L75.3813 -109.278C75.3621 -108.371 75.3239 -107.486 75.2681 -106.625C75.4573 -106.695 75.6324 -106.715 75.7915 -106.676C76.072 -106.606 76.2431 -106.371 76.3452 -106.09C76.4479 -105.807 76.4951 -105.44 76.5112 -105.038C76.5274 -104.633 76.5118 -104.18 76.481 -103.717C76.2562 -100.345 75.3725 -98.4785 73.7856 -97.4883C73.0048 -94.7401 71.96 -92.449 70.7056 -90.665C70.6955 -89.9377 70.6636 -89.0949 70.6353 -88.1914C70.6015 -87.1135 70.5749 -85.9429 70.606 -84.7617C70.6683 -82.394 70.96 -80.0007 71.8579 -78.2148C72.0785 -77.7766 72.509 -77.3152 73.1099 -76.8438C73.7086 -76.3741 74.4662 -75.9015 75.3276 -75.4375C77.0512 -74.5092 79.1779 -73.6196 81.2495 -72.8457C83.3203 -72.0721 85.3335 -71.4145 86.8286 -70.9512C87.5759 -70.7196 88.1946 -70.5364 88.6255 -70.4111C88.8406 -70.3486 89.0099 -70.3 89.1245 -70.2676C89.1815 -70.2515 89.226 -70.2397 89.2554 -70.2314C89.2697 -70.2274 89.2812 -70.2237 89.2886 -70.2217C89.2917 -70.2208 89.2946 -70.2202 89.2964 -70.2197L89.2993 -70.2188L89.2847 -70.168C91.8566 -69.3611 94.8435 -68.4545 96.3179 -65.2959C96.529 -64.8435 96.6942 -64.2087 96.8257 -63.4355C96.9576 -62.66 97.0574 -61.7333 97.1333 -60.6904C97.2851 -58.6042 97.3427 -56.0391 97.3716 -53.2549C97.4294 -47.6811 97.3724 -41.225 97.7183 -35.9219V-35.915C97.8337 -30.6041 97.834 -25.6971 97.8052 -22.1182C97.7907 -20.3289 97.7685 -18.8707 97.7505 -17.8604C97.7415 -17.3558 97.7339 -16.9623 97.728 -16.6953C97.7265 -16.6243 97.7253 -16.5618 97.7241 -16.5088C97.727 -16.4938 97.7306 -16.4741 97.7349 -16.4521C97.7476 -16.3867 97.7666 -16.2897 97.7905 -16.166C97.8387 -15.9171 97.9085 -15.556 97.9937 -15.1113C98.1641 -14.221 98.3981 -12.9902 98.6499 -11.6318C99.1534 -8.91539 99.7303 -5.67994 100.025 -3.61816C100.372 -1.18604 101.008 7.59412 101.556 15.7549C101.83 19.8376 102.082 23.7701 102.266 26.6807C102.358 28.1355 102.433 29.3366 102.485 30.1729C102.511 30.5904 102.531 30.9181 102.544 31.1406C102.547 31.1772 102.549 31.2113 102.551 31.2422L102.564 31.2412V31.2422C102.564 31.243 102.565 31.2446 102.565 31.2461C102.565 31.2498 102.566 31.2564 102.567 31.2637C102.569 31.2786 102.571 31.3012 102.575 31.3301C102.582 31.3888 102.592 31.4763 102.606 31.5889C102.633 31.8145 102.673 32.1441 102.723 32.5566C102.824 33.3822 102.968 34.5438 103.141 35.8848C103.487 38.5674 103.948 41.9708 104.41 44.8535C104.519 45.5346 104.709 46.3799 104.803 47.2266C104.899 48.0794 104.903 48.9705 104.634 49.7773C104.408 50.456 104.121 51.9431 103.861 53.3906C103.603 54.8253 103.37 56.2214 103.252 56.6904C103.233 56.7698 103.188 56.8633 103.133 56.9609C103.077 57.0612 103.002 57.177 102.913 57.3047C102.734 57.5607 102.493 57.8722 102.21 58.2148C101.645 58.9004 100.906 59.7189 100.153 60.4863C99.4007 61.2529 98.6303 61.9737 98.0015 62.46C97.6884 62.7021 97.4018 62.8925 97.1665 63C97.0498 63.0533 96.935 63.0913 96.8296 63.0996C96.7221 63.1079 96.6059 63.0857 96.5181 62.998L96.4663 62.9316C96.4233 62.8613 96.4053 62.7799 96.4028 62.7012C96.3998 62.5968 96.4209 62.4794 96.4565 62.3584C96.5143 62.1628 96.6181 61.9319 96.7505 61.6768C96.629 61.6205 96.5358 61.5012 96.4712 61.3809C96.4036 61.2546 96.353 61.1002 96.3237 60.9414C96.2901 60.7588 96.2843 60.548 96.3325 60.3555C96.3028 60.3721 96.2731 60.3886 96.2437 60.4033C96.09 60.4801 95.9284 60.5372 95.7837 60.5586C95.6492 60.5783 95.4785 60.5735 95.3638 60.459L95.3091 60.3857C95.2662 60.3079 95.2565 60.2177 95.2622 60.1357C95.2701 60.0249 95.306 59.8988 95.3579 59.7666C95.4627 59.5004 95.6494 59.1665 95.8862 58.793C95.8933 58.7818 95.9015 58.771 95.9087 58.7598L95.8247 58.8428C95.7386 58.756 95.7143 58.6375 95.7153 58.5293C95.7166 58.4194 95.7429 58.2936 95.7847 58.1611C95.8687 57.8945 96.026 57.5603 96.229 57.1865C96.6365 56.4364 97.2463 55.4928 97.8804 54.541C98.5166 53.586 99.1774 52.6229 99.6958 51.8232C99.9546 51.424 100.176 51.0686 100.339 50.7783C100.488 50.5141 100.578 50.3184 100.613 50.1973C100.61 50.1905 100.607 50.1826 100.604 50.1758C100.445 49.7806 100.225 49.3406 99.9849 48.9443C99.743 48.5461 99.4851 48.1992 99.2524 47.9834C99.1357 47.8752 99.0335 47.8084 98.9526 47.7793C98.8772 47.7524 98.8319 47.7615 98.7993 47.7832C98.7987 47.7837 98.7964 47.7861 98.7925 47.79C98.7878 47.7948 98.7812 47.8017 98.7739 47.8115C98.7588 47.8318 98.741 47.8609 98.7212 47.8994C98.6814 47.977 98.6385 48.0842 98.5933 48.2188C98.5028 48.4877 98.408 48.8518 98.3101 49.2793C98.1142 50.1342 97.9097 51.2272 97.6997 52.2969C97.4904 53.363 97.2751 54.4087 97.061 55.1592C96.9547 55.532 96.8448 55.8445 96.731 56.0518C96.6752 56.1532 96.609 56.247 96.5278 56.3057C96.4853 56.3364 96.4331 56.3619 96.3726 56.3682C96.3102 56.3745 96.2503 56.3593 96.1987 56.3301C95.9469 56.1869 95.7904 55.9276 95.6929 55.6514C95.5947 55.3727 95.5477 55.0531 95.5269 54.7578C95.506 54.4611 95.5106 54.1796 95.521 53.9736C95.5262 53.871 95.5333 53.7858 95.5386 53.7266C95.5412 53.6973 95.5438 53.6732 95.5454 53.6572C95.5462 53.6497 95.5469 53.6428 95.5474 53.6387V53.6318C95.5476 53.6243 95.5481 53.6134 95.5483 53.6006C95.549 53.5702 95.5491 53.5244 95.5503 53.4668C95.5527 53.3503 95.5564 53.1799 95.5601 52.9688C95.5675 52.5457 95.5766 51.9537 95.5825 51.2812C95.5943 49.9349 95.5946 48.264 95.5474 46.9619C95.5018 45.7066 95.3291 44.5034 95.1958 43.4014C95.0634 42.3068 94.9676 41.3018 95.0864 40.4697C95.2053 39.6382 95.5348 38.8618 95.8657 38.0566C96.1988 37.2461 96.5384 36.3952 96.7026 35.3887C96.9008 34.1738 97.1145 32.9046 97.1548 32.1719C97.1524 32.1619 97.1492 32.1503 97.146 32.1377C97.1316 32.0809 97.1094 31.9957 97.0815 31.8857C97.0257 31.6652 96.944 31.3405 96.8394 30.9258C96.6297 30.0948 96.3289 28.899 95.9653 27.4434C95.238 24.5314 94.2584 20.5748 93.2495 16.3984C91.2329 8.05092 89.095 -1.19239 88.6235 -4.72754C88.3914 -6.46859 88.276 -9.24776 88.2183 -11.584C88.1894 -12.7531 88.1747 -13.8144 88.1675 -14.583C88.1639 -14.967 88.1615 -15.2789 88.1606 -15.4941V-15.5918C88.1601 -15.5976 88.1588 -15.607 88.1577 -15.6182C88.1555 -15.6415 88.1522 -15.6772 88.148 -15.7227C88.1395 -15.814 88.1275 -15.9495 88.1118 -16.125C88.0802 -16.4773 88.0351 -16.9931 87.981 -17.6445C87.8727 -18.948 87.7278 -20.7987 87.5835 -22.9844C87.2949 -27.3556 87.0063 -33.073 87.0063 -38.4512C87.0063 -40.1223 86.8339 -42.4813 86.6606 -44.8916C86.5537 -46.3798 86.4466 -47.8875 86.3804 -49.2598C86.0716 -47.1489 85.6102 -44.8158 85.2495 -42.7959C84.3329 -37.6628 83.119 -33.3266 82.0503 -29.2158C80.9842 -25.1152 80.0618 -21.2365 79.7144 -16.9961C79.7617 -12.5077 81.344 -8.66367 83.3042 -4.43066C85.2918 -0.13872 87.6645 4.55048 89.1694 10.6816C90.3082 14.5249 91.6702 19.5484 91.7134 28.9639H91.7153C91.7153 28.9951 91.7137 29.0287 91.7134 29.0645C91.7138 29.1839 91.7153 29.304 91.7153 29.4248H91.7085C91.633 32.4555 90.9421 43.8261 89.6362 52.5322C88.5272 59.9257 87.1955 65.6231 85.9858 71.3242C84.7762 77.0254 83.6869 82.7372 83.0571 90.1709C82.4476 97.3657 81.9039 101.936 82.1343 108.617L81.9722 108.623H82.1353C82.1353 110.916 82.6518 113.957 83.1724 117.457C83.6919 120.949 84.2124 124.884 84.2124 128.937C84.2123 136.422 82.9402 144.341 81.6128 151.419C80.2834 158.507 78.9025 164.738 78.6724 168.879C78.5548 170.993 77.9172 174.528 77.2554 178.667C76.5923 182.814 75.9018 187.585 75.6714 192.191L75.6694 192.19C75.6624 193.277 75.61 194.406 75.5562 195.481C75.4983 196.637 75.4409 197.729 75.4409 198.647C75.441 201.363 75.9008 204.853 76.5913 208.077C76.8669 209.364 77.4448 213.332 78.0103 217.237C78.577 221.152 79.1314 225.004 79.3608 226.082C79.4238 226.379 79.3274 226.707 79.145 227.033C78.9605 227.363 78.6753 227.716 78.3257 228.073C77.6254 228.789 76.6423 229.549 75.606 230.224C74.5689 230.899 73.4695 231.494 72.5356 231.88C72.0694 232.072 71.6387 232.215 71.2749 232.288C70.9194 232.359 70.595 232.371 70.3638 232.266C69.0593 231.672 67.9417 230.558 67.1519 229.392C66.3652 228.23 65.8836 226.985 65.8833 226.116C65.8833 225.025 65.9986 222.365 66.1138 219.38C66.2291 216.391 66.3442 213.07 66.3442 210.65C66.3442 205.911 66.6335 202.69 66.9224 199.839C67.2112 196.989 67.4995 194.515 67.4995 191.261H67.5103C68.3006 177.407 67.8988 166.231 67.2964 157.051C66.6912 147.829 65.8824 140.6 65.8823 134.707C65.8823 131.977 66.1721 129.836 66.4605 127.547C66.7487 125.259 67.0366 122.817 67.0366 119.473C67.0366 114.468 67.0127 113.764 66.814 109.547H66.8062C66.8061 107.362 66.6337 105.406 66.4605 103.356C66.2873 101.308 66.1138 99.1663 66.1138 96.6201C66.1138 93.269 65.9715 89.403 65.814 85.1328C65.6565 80.8635 65.4839 76.1901 65.4214 71.2305C65.3299 63.9731 64.9839 56.3595 64.7759 49.7461C64.5776 43.4432 64.506 38.0385 64.9028 34.7344H60.8442C61.238 38.0406 61.1661 43.4351 60.9683 49.7236C60.7602 56.337 60.4142 63.9508 60.3228 71.208C60.2603 76.1676 60.0877 80.8411 59.9302 85.1104C59.7727 89.3804 59.6304 93.2466 59.6304 96.5977C59.6303 99.1438 59.4568 101.285 59.2837 103.334C59.1105 105.384 58.938 107.34 58.938 109.524H58.9292C58.7304 113.741 58.7065 114.445 58.7065 119.45C58.7066 122.794 58.9945 125.236 59.2827 127.524C59.5711 129.813 59.8608 131.955 59.8608 134.685C59.8608 140.577 59.0519 147.807 58.4468 157.028C57.8444 166.208 57.4425 177.384 58.2329 191.238H58.2456C58.2457 194.492 58.5339 196.966 58.8228 199.816C59.1116 202.667 59.4009 205.889 59.4009 210.628C59.4009 213.048 59.516 216.369 59.6313 219.357C59.7465 222.342 59.8618 225.003 59.8618 226.094C59.8615 226.963 59.3799 228.207 58.5933 229.369C57.8034 230.535 56.6858 231.65 55.3813 232.243C55.1501 232.348 54.8256 232.337 54.4702 232.266C54.1064 232.193 53.6757 232.05 53.2095 231.857C52.2757 231.472 51.1762 230.876 50.1392 230.201C49.1029 229.526 48.1197 228.767 47.4194 228.051C47.0698 227.693 46.7846 227.34 46.6001 227.011C46.4177 226.685 46.3214 226.356 46.3843 226.06C46.6137 224.982 47.1681 221.129 47.7349 217.215C48.3003 213.31 48.8782 209.342 49.1538 208.055C49.8444 204.83 50.3041 201.341 50.3042 198.625C50.3042 197.707 50.2468 196.615 50.189 195.459C50.1352 194.384 50.0827 193.254 50.0757 192.168L50.0737 192.169C49.8434 187.562 49.1528 182.792 48.4897 178.645C47.8279 174.505 47.1903 170.97 47.0728 168.856C46.8427 164.716 45.4618 158.485 44.1323 151.396C42.8049 144.318 41.5328 136.4 41.5327 128.914C41.5327 124.862 42.0533 120.927 42.5728 117.435C43.0934 113.935 43.6098 110.893 43.6099 108.601H43.771L43.6099 108.595C43.8402 101.913 43.2966 97.3426 42.687 90.1475C42.0573 82.7152 40.8813 77.0108 39.5855 71.3154C38.2896 65.6201 36.8724 59.9279 35.7632 52.5332C35.0699 47.9114 34.5496 42.5398 34.2319 38.0361C33.9148 33.5398 33.7985 29.8881 33.9155 28.7168L33.9282 28.7178C34.3942 20.147 35.2907 18.7882 36.4565 12.085C37.2041 7.78782 39.6417 3.02843 41.9312 -1.9209C44.2025 -6.83101 46.3334 -11.9406 46.6011 -17.043C46.137 -21.3777 45.1647 -25.1863 44.0767 -29.1855C42.9816 -33.2106 41.7698 -37.4316 40.853 -42.5654C40.4617 -44.7572 40.0474 -47.6396 39.52 -50.166C39.4643 -48.566 39.3341 -46.7082 39.2026 -44.8799C39.0293 -42.4695 38.857 -40.1106 38.8569 -38.4395C38.8569 -33.0612 38.5684 -27.3439 38.2798 -22.9727C38.1355 -20.7868 37.9906 -18.9363 37.8823 -17.6328C37.8282 -16.9812 37.7831 -16.4656 37.7515 -16.1133C37.7357 -15.9377 37.7238 -15.8023 37.7153 -15.7109C37.7111 -15.6653 37.7078 -15.6297 37.7056 -15.6064C37.7045 -15.5951 37.7032 -15.5859 37.7026 -15.5801V-15.4824C37.7017 -15.2672 37.6994 -14.9555 37.6958 -14.5713C37.6886 -13.8026 37.6739 -12.7415 37.645 -11.5723C37.5873 -9.23589 37.4719 -6.45689 37.2397 -4.71582C36.7683 -1.18077 34.6304 8.06242 32.6138 16.4102C31.6048 20.5867 30.6253 24.5431 29.898 27.4551C29.5343 28.911 29.2336 30.1065 29.0239 30.9375C28.9192 31.3525 28.8376 31.6769 28.7817 31.8975C28.7538 32.0077 28.7317 32.0926 28.7173 32.1494C28.7137 32.1634 28.7101 32.1758 28.7075 32.1865C28.7482 32.9198 28.9618 34.1871 29.1597 35.4004C29.3239 36.407 29.6635 37.2578 29.9966 38.0684C30.3275 38.8736 30.657 39.6498 30.7759 40.4814C30.8947 41.3136 30.7989 42.3183 30.6665 43.4131C30.5332 44.5153 30.3605 45.7181 30.3149 46.9736C30.2677 48.2759 30.268 49.9465 30.2798 51.293C30.2857 51.9657 30.2949 52.5574 30.3022 52.9805C30.3059 53.1918 30.3096 53.362 30.312 53.4785C30.3132 53.5364 30.3133 53.5819 30.314 53.6123C30.3143 53.6254 30.3148 53.636 30.3149 53.6436V53.6504C30.3154 53.6546 30.3161 53.6613 30.3169 53.6689C30.3186 53.685 30.3211 53.7089 30.3237 53.7383C30.329 53.7976 30.3361 53.8826 30.3413 53.9854C30.3517 54.1914 30.3563 54.4727 30.3355 54.7695C30.3146 55.065 30.2677 55.3843 30.1694 55.6631C30.0719 55.9395 29.9158 56.1987 29.6636 56.3418C29.612 56.371 29.5521 56.3862 29.4897 56.3799C29.4294 56.3735 29.3769 56.348 29.3345 56.3174C29.2534 56.2587 29.1871 56.1648 29.1313 56.0635C29.0175 55.8562 28.9076 55.5437 28.8013 55.1709C28.5872 54.4204 28.372 53.3748 28.1626 52.3086C27.9525 51.2388 27.7481 50.146 27.5522 49.291C27.4543 48.8635 27.3595 48.4994 27.269 48.2305C27.2238 48.0959 27.1809 47.9887 27.1411 47.9111C27.1214 47.8726 27.1035 47.8435 27.0884 47.8232C27.0811 47.8135 27.0745 47.8065 27.0698 47.8018C27.066 47.7979 27.0636 47.7954 27.063 47.7949C27.0303 47.7733 26.9853 47.764 26.9097 47.791C26.8287 47.8202 26.7267 47.8868 26.6099 47.9951C26.3771 48.2111 26.1194 48.5576 25.8774 48.9561C25.6367 49.3525 25.4172 49.7922 25.2583 50.1875C25.2555 50.1945 25.2523 50.202 25.2495 50.209C25.2842 50.3301 25.3744 50.5259 25.523 50.79C25.6862 51.0803 25.9078 51.4358 26.1665 51.835C26.6848 52.6346 27.3457 53.5977 27.9819 54.5527C28.616 55.5046 29.2258 56.4481 29.6333 57.1982C29.8364 57.5721 29.9936 57.9062 30.0776 58.1729C30.1194 58.3055 30.1458 58.4311 30.147 58.541C30.1481 58.6494 30.1241 58.7676 30.0376 58.8545L29.9536 58.7715C29.9608 58.7827 29.969 58.7936 29.9761 58.8047C30.2129 59.1783 30.3997 59.5121 30.5044 59.7783C30.5564 59.9106 30.5922 60.0366 30.6001 60.1475C30.6078 60.2568 30.5887 60.3792 30.4985 60.4697L30.4995 60.4707C30.3848 60.5854 30.2141 60.5901 30.0796 60.5703C29.9349 60.549 29.7734 60.4918 29.6196 60.415C29.5903 60.4003 29.5604 60.3837 29.5308 60.3672C29.579 60.5598 29.5732 60.7704 29.5396 60.9531C29.5103 61.112 29.4598 61.2663 29.3921 61.3926C29.3275 61.5129 29.2343 61.6322 29.1128 61.6885C29.2452 61.9436 29.348 62.1746 29.4058 62.3701C29.4415 62.4913 29.4626 62.6084 29.4595 62.7129C29.4562 62.8181 29.4265 62.9274 29.3442 63.0098C29.2564 63.0975 29.1402 63.1197 29.0327 63.1113C28.9274 63.103 28.8125 63.065 28.6958 63.0117C28.4605 62.9042 28.1739 62.7137 27.8608 62.4717C27.2321 61.9854 26.4615 61.2645 25.7095 60.498C24.9566 59.7307 24.2177 58.9121 23.6519 58.2266C23.3691 57.884 23.128 57.5724 22.9497 57.3164C22.8608 57.1888 22.7857 57.0729 22.729 56.9727C22.6738 56.875 22.6297 56.7815 22.6099 56.7021C22.4927 56.2331 22.2597 54.837 22.0015 53.4023C21.7409 51.9549 21.4543 50.4678 21.228 49.7891C20.9592 48.9822 20.9637 48.0911 21.0591 47.2383C21.1538 46.3916 21.3436 45.5463 21.4526 44.8652C21.9139 41.9825 22.375 38.5792 22.7212 35.8965C22.8942 34.5555 23.0382 33.3939 23.1392 32.5684C23.1896 32.1557 23.2293 31.8263 23.2563 31.6006C23.2698 31.488 23.2806 31.4005 23.2876 31.3418C23.291 31.3128 23.2937 31.2903 23.2954 31.2754C23.2963 31.2681 23.2969 31.2615 23.2974 31.2578C23.2976 31.2563 23.2982 31.2547 23.2983 31.2539V31.2529L23.312 31.2539C23.3139 31.223 23.3166 31.189 23.3188 31.1523C23.3325 30.9298 23.3525 30.6023 23.3784 30.1846C23.4303 29.3483 23.5052 28.1474 23.5972 26.6924C23.7811 23.7817 24.033 19.8495 24.3071 15.7666C24.855 7.60575 25.491 -1.17431 25.8384 -3.60645C26.1329 -5.66822 26.7099 -8.90355 27.2134 -11.6201C27.4652 -12.9786 27.6992 -14.2093 27.8696 -15.0996C27.9548 -15.5444 28.0246 -15.9053 28.0728 -16.1543C28.0967 -16.2781 28.1157 -16.3749 28.1284 -16.4404C28.1327 -16.4625 28.1362 -16.482 28.1392 -16.4971C28.138 -16.5501 28.1368 -16.6125 28.1353 -16.6836C28.1294 -16.9506 28.1218 -17.3439 28.1128 -17.8486C28.0948 -18.859 28.0725 -20.317 28.0581 -22.1064C28.0292 -25.6854 28.0296 -30.5923 28.145 -35.9033V-35.9102C28.4909 -41.2133 28.4339 -47.6693 28.4917 -53.2432C28.5206 -56.0275 28.5781 -58.5924 28.73 -60.6787C28.8059 -61.7218 28.9057 -62.6482 29.0376 -63.4238C29.1691 -64.1972 29.3342 -64.8317 29.5454 -65.2842C31.1925 -68.8131 34.7274 -69.5308 37.4624 -70.4395C37.887 -70.5837 38.496 -70.7938 39.2319 -71.0576C40.7056 -71.5859 42.6897 -72.3293 44.7319 -73.1895C46.775 -74.0499 48.873 -75.0253 50.5757 -76.0186C51.427 -76.5152 52.1767 -77.0148 52.77 -77.5039C53.3654 -77.9947 53.7928 -78.4673 54.0142 -78.9072C54.914 -80.6966 55.2594 -82.9204 55.3765 -85.1123C55.4828 -87.1055 55.4031 -89.0489 55.3872 -90.6084C54.0334 -92.4371 52.9012 -94.8184 52.0669 -97.7217C51.3069 -98.1879 50.6491 -98.8182 50.1499 -99.7334C49.6161 -100.712 49.2663 -102.007 49.1499 -103.753C49.119 -104.216 49.1034 -104.67 49.1196 -105.074C49.1357 -105.476 49.183 -105.843 49.2856 -106.126C49.3878 -106.408 49.5588 -106.642 49.8394 -106.712C50.0639 -106.768 50.3194 -106.706 50.603 -106.549C50.5281 -107.644 50.4833 -108.781 50.4702 -109.958L50.4663 -110.688C50.4663 -121.142 56.0228 -125 63.1616 -125ZM70.3726 -90.21C68.3956 -87.6146 65.9338 -86.2208 63.1616 -86.2207C60.3542 -86.2209 57.7928 -87.5789 55.7163 -90.1797C55.7399 -88.7075 55.7978 -86.9151 55.7007 -85.0957C55.5829 -82.8891 55.2344 -80.6105 54.3042 -78.7607C54.0532 -78.262 53.5851 -77.7559 52.9761 -77.2539C52.3645 -76.7499 51.5988 -76.2409 50.7388 -75.7393C49.0186 -74.7359 46.9064 -73.7534 44.8579 -72.8906C42.8085 -72.0275 40.8185 -71.2815 39.3413 -70.752C38.617 -70.4923 38.0152 -70.285 37.5903 -70.1406L37.5913 -70.1396C37.5759 -70.1345 37.5599 -70.1301 37.5444 -70.125C37.3416 -70.0562 37.1817 -70.0023 37.0718 -69.9658C37.0152 -69.947 36.9713 -69.9325 36.9419 -69.9229C36.9275 -69.9181 36.9162 -69.9145 36.9087 -69.9121C36.9051 -69.9109 36.9018 -69.9098 36.8999 -69.9092L36.898 -69.9082L36.895 -69.917C34.2513 -69.08 31.2898 -68.2544 29.8394 -65.1465C29.6466 -64.7335 29.4868 -64.1338 29.3569 -63.3701C29.2274 -62.6085 29.1288 -61.693 29.0532 -60.6553C28.9021 -58.5797 28.8448 -56.0232 28.8159 -53.2393C28.7619 -48.0236 28.8092 -42.01 28.5298 -36.8994L28.4692 -35.8896C28.354 -30.5854 28.3535 -25.6846 28.3823 -22.1094C28.3967 -20.3211 28.419 -18.8639 28.437 -17.8545C28.446 -17.35 28.4536 -16.9571 28.4595 -16.6904C28.4613 -16.608 28.4621 -16.5374 28.4634 -16.4795L28.4663 -16.4785L28.4653 -16.4775C28.4651 -16.4766 28.4647 -16.4751 28.4644 -16.4736C28.4651 -16.4404 28.4657 -16.4114 28.4663 -16.3867C28.4671 -16.3527 28.4678 -16.3269 28.4683 -16.3096C28.4685 -16.3011 28.4691 -16.2944 28.4692 -16.29V-16.2832L28.4272 -16.2822C28.4169 -16.2292 28.4052 -16.1654 28.3911 -16.0928C28.343 -15.844 28.2731 -15.4828 28.188 -15.0381C28.0176 -14.1481 27.7843 -12.9182 27.5327 -11.5605C27.0291 -8.84343 26.4522 -5.61478 26.1587 -3.56055C25.8135 -1.14392 25.1798 7.61902 24.6313 15.7881C24.3573 19.8704 24.1043 23.8025 23.9204 26.7129C23.8285 28.1677 23.7535 29.368 23.7017 30.2041C23.6758 30.6218 23.6558 30.9493 23.6421 31.1719C23.6353 31.2828 23.63 31.3685 23.6265 31.4258C23.6247 31.4542 23.6234 31.4767 23.6226 31.4912C23.6221 31.4981 23.6218 31.5043 23.6216 31.5078V31.5127L23.5933 31.5107C23.5886 31.549 23.5843 31.5922 23.5786 31.6396C23.5516 31.8655 23.5119 32.1948 23.4614 32.6074C23.3604 33.4335 23.2156 34.5956 23.0425 35.9375C22.6962 38.6212 22.235 42.0283 21.773 44.916C21.6588 45.6292 21.4754 46.4337 21.3813 47.2744C21.288 48.1091 21.2887 48.9452 21.5356 49.6865C21.771 50.3927 22.062 51.9071 22.3208 53.3447C22.5817 54.7941 22.8106 56.1676 22.9243 56.623C22.9333 56.6589 22.9598 56.7215 23.0112 56.8125C23.0612 56.901 23.1297 57.0088 23.2153 57.1318C23.3867 57.3779 23.6223 57.6817 23.9019 58.0205C24.4611 58.698 25.1937 59.5099 25.9409 60.2715C26.6889 61.0339 27.4483 61.7418 28.0601 62.2148C28.367 62.4522 28.6296 62.625 28.8306 62.7168C28.9311 62.7627 29.0065 62.784 29.0581 62.7881C29.0827 62.79 29.0981 62.7874 29.106 62.7852C29.1125 62.7832 29.1149 62.781 29.1157 62.7803C29.1203 62.7755 29.1336 62.7575 29.1353 62.7031C29.1369 62.6466 29.1251 62.5666 29.0942 62.4619C29.0325 62.2527 28.9055 61.9782 28.7271 61.6533C28.3708 61.005 27.8267 60.1885 27.2495 59.3516C26.6748 58.5182 26.0661 57.6624 25.5894 56.9473C25.3508 56.5894 25.1429 56.2627 24.9868 55.9883C24.8341 55.7196 24.7196 55.4823 24.6851 55.3096C24.5655 54.7116 24.5664 53.8855 24.5952 53.1074C24.6245 52.3166 24.6821 51.582 24.6821 51.123C24.6822 50.8587 24.7945 50.4721 24.9575 50.0664C25.1232 49.6542 25.3506 49.1991 25.6001 48.7881C25.8485 48.379 26.1244 48.0034 26.3892 47.7578C26.5206 47.6359 26.6598 47.5366 26.7993 47.4863C26.9439 47.4345 27.1025 47.4321 27.2427 47.5254C27.3224 47.5786 27.3822 47.672 27.4292 47.7637C27.4793 47.8615 27.528 47.9852 27.5757 48.127C27.6714 48.4115 27.769 48.7882 27.8677 49.2188C28.0651 50.0803 28.2719 51.1812 28.481 52.2461C28.6908 53.3145 28.903 54.3468 29.1128 55.082C29.2182 55.4515 29.3204 55.734 29.4155 55.9072C29.4598 55.9878 29.4964 56.0297 29.519 56.0488C29.6659 55.9582 29.7812 55.7896 29.8638 55.5557C29.9485 55.3153 29.9924 55.0282 30.0122 54.7471C30.0319 54.4672 30.0271 54.1997 30.0171 54.002C30.0121 53.9035 30.0054 53.8225 30.0005 53.7666C29.998 53.7388 29.9961 53.7166 29.9946 53.7021C29.9939 53.695 29.9931 53.6891 29.9927 53.6855V53.6807L29.9917 53.6729V53.6631C29.9916 53.661 29.9908 53.657 29.9907 53.6533C29.9906 53.6455 29.991 53.6339 29.9907 53.6191C29.9901 53.5885 29.989 53.5426 29.9878 53.4844C29.9854 53.3676 29.9817 53.1978 29.978 52.9863C29.9706 52.5625 29.9615 51.9698 29.9556 51.2959C29.9437 49.9486 29.9442 48.2719 29.9917 46.9619C30.0379 45.6889 30.212 44.4671 30.3442 43.374C30.4773 42.2738 30.5665 41.3107 30.4546 40.5273C30.3426 39.7437 30.0321 39.0073 29.6968 38.1914C29.3636 37.3806 29.0101 36.4992 28.8394 35.4521C28.6408 34.2347 28.4182 32.9132 28.3823 32.1553H28.3813V32.1543C28.3816 32.1535 28.3819 32.1518 28.3823 32.1504C28.3792 32.0837 28.3755 32.0213 28.3755 31.9639H28.4302C28.441 31.922 28.4533 31.8734 28.4673 31.8184C28.5232 31.5978 28.6047 31.2727 28.7095 30.8574C28.9191 30.0267 29.22 28.8322 29.5835 27.377C30.3107 24.4654 31.2906 20.5095 32.2993 16.334C34.318 7.97797 36.4499 -1.24495 36.9185 -4.75879C37.148 -6.48015 37.2631 -9.24228 37.3208 -11.5801C37.3496 -12.7473 37.3644 -13.8067 37.3716 -14.5742C37.3752 -14.9579 37.3775 -15.2696 37.3784 -15.4844V-15.8174H37.3989C37.4066 -15.902 37.4164 -16.011 37.4282 -16.1426C37.4598 -16.4942 37.505 -17.0092 37.5591 -17.6602C37.6672 -18.9621 37.8114 -20.8099 37.9556 -22.9932C38.244 -27.3612 38.5327 -33.0711 38.5327 -38.4395C38.5327 -40.1252 38.7065 -42.4982 38.8794 -44.9033C39.0526 -47.3132 39.2251 -49.7572 39.2251 -51.5967H39.5493C39.5493 -51.5301 39.5468 -51.4626 39.5464 -51.3945L39.5806 -51.4023C40.238 -48.6271 40.7231 -45.1382 41.1724 -42.6221C42.086 -37.5055 43.2929 -33.3001 44.3892 -29.2705C45.4676 -25.3064 46.4376 -21.5106 46.9097 -17.1982L46.9341 -17.1963C46.932 -17.15 46.9286 -17.1029 46.9263 -17.0566C46.9287 -17.0341 46.9317 -17.0108 46.9341 -16.9883L46.9224 -16.9873C46.6422 -11.8283 44.4897 -6.68061 42.2251 -1.78516C39.9235 3.19041 37.5141 7.89663 36.7759 12.1396C35.5926 18.9435 34.6997 20.2135 34.2388 28.9717L34.2202 28.9707C34.1376 30.3078 34.2558 33.7677 34.5552 38.0127C34.8724 42.511 35.3919 47.8735 36.0835 52.4844C37.1905 59.864 38.6047 65.5419 39.9019 71.2432C41.199 76.9444 42.3777 82.666 43.0093 90.1201C43.6179 97.3041 44.1638 101.898 43.9331 108.601H43.9341C43.934 110.924 43.4121 114 42.894 117.482C42.3749 120.973 41.8569 124.888 41.8569 128.914C41.857 136.368 43.1237 144.261 44.4507 151.337C45.7757 158.402 47.1653 164.669 47.397 168.838C47.5133 170.93 48.1454 174.437 48.8101 178.594C49.4628 182.677 50.1432 187.374 50.3853 191.931H50.398C50.398 193.08 50.4554 194.288 50.5132 195.442C50.5709 196.594 50.6284 197.697 50.6284 198.625C50.6283 201.371 50.1647 204.885 49.4712 208.123C49.1986 209.396 48.6219 213.347 48.0552 217.261C47.4898 221.165 46.933 225.035 46.7007 226.127C46.6617 226.311 46.7166 226.554 46.8833 226.853C47.0485 227.148 47.3118 227.477 47.6509 227.824C48.3289 228.517 49.2921 229.262 50.3169 229.93C51.341 230.596 52.4216 231.181 53.3325 231.558C53.7881 231.746 54.1982 231.88 54.5337 231.947C54.8767 232.016 55.1135 232.007 55.2466 231.947C56.4804 231.386 57.5567 230.322 58.3247 229.188C59.0954 228.049 59.5373 226.869 59.5376 226.094C59.5376 225.011 59.4226 222.362 59.3071 219.37C59.1918 216.382 59.0767 213.055 59.0767 210.628C59.0767 205.904 58.7878 202.694 58.4995 199.849C58.2182 197.072 57.9371 194.634 57.9233 191.478L57.9214 191.479C57.113 177.505 57.5164 166.244 58.1226 157.007C58.7292 147.763 59.5366 140.564 59.5366 134.685C59.5366 131.978 59.2491 129.856 58.9605 127.564C58.6717 125.273 58.3824 122.815 58.3823 119.45C58.3823 114.37 58.4069 113.712 58.6138 109.329H58.6147C58.6246 107.207 58.7926 105.293 58.9605 103.307C59.1335 101.259 59.3061 99.1289 59.3062 96.5977C59.3062 93.2393 59.4485 89.3662 59.606 85.0977C59.7635 80.828 59.9361 76.159 59.9985 71.2041C60.09 63.9429 60.4362 56.3208 60.644 49.7139C60.843 43.3905 60.9132 38.0049 60.5181 34.7344H60.3911V34.4102H60.4771C60.4718 34.3719 60.4678 34.3335 60.4624 34.2959L60.7827 34.251C60.7902 34.3033 60.796 34.3567 60.8032 34.4102H64.9438C64.9501 34.3643 64.955 34.3183 64.9614 34.2734L65.2817 34.3184C64.8226 37.5331 64.892 43.1218 65.1001 49.7363C65.308 56.3433 65.6541 63.9653 65.7456 71.2266C65.808 76.1816 65.9807 80.8504 66.1382 85.1201C66.2957 89.3888 66.438 93.2617 66.438 96.6201C66.438 99.1515 66.6106 101.281 66.7837 103.329C66.9516 105.316 67.1195 107.229 67.1294 109.352L67.2534 112.067C67.3476 114.34 67.3608 115.662 67.3608 119.473C67.3608 122.837 67.0715 125.295 66.7827 127.587C66.494 129.879 66.2066 132.001 66.2065 134.707C66.2066 140.586 67.0139 147.785 67.6206 157.029C68.2268 166.267 68.6301 177.527 67.8218 191.501V191.5C67.8081 194.657 67.5269 197.095 67.2456 199.871C66.9573 202.716 66.6685 205.926 66.6685 210.65C66.6684 213.078 66.5533 216.405 66.438 219.393C66.3225 222.384 66.2075 225.034 66.2075 226.116C66.2078 226.892 66.6498 228.072 67.4204 229.21C68.1884 230.344 69.2647 231.409 70.4985 231.97C70.6315 232.03 70.8682 232.038 71.2114 231.97C71.547 231.903 71.9569 231.768 72.4126 231.58C73.3235 231.204 74.404 230.619 75.4282 229.952C76.4531 229.285 77.4162 228.54 78.0942 227.847C78.4334 227.5 78.6967 227.17 78.8618 226.875C79.0286 226.577 79.0835 226.334 79.0444 226.149C78.8121 225.058 78.2553 221.188 77.6899 217.283C77.1232 213.369 76.5465 209.419 76.2739 208.146C75.5804 204.907 75.1168 201.393 75.1167 198.647C75.1167 197.719 75.1743 196.617 75.2319 195.465C75.2897 194.311 75.3471 193.102 75.3472 191.953H75.3599C75.6019 187.397 76.2823 182.699 76.9351 178.616C77.5997 174.459 78.2319 170.952 78.3481 168.86C78.5799 164.692 79.9695 158.424 81.2944 151.359C82.6214 144.284 83.8881 136.39 83.8882 128.937C83.8881 124.91 83.3703 120.995 82.8511 117.505C82.3334 114.025 81.8127 110.951 81.812 108.628L81.8101 108.629C81.5788 101.923 82.1251 97.3286 82.7339 90.1426C83.3653 82.6899 84.4586 76.9638 85.6694 71.2568C86.8804 65.5497 88.2077 59.8654 89.3149 52.4844C90.6779 43.3982 91.3685 31.4019 91.3892 29.0645C91.3553 19.6234 89.9955 14.6091 88.8589 10.7734L88.8569 10.7666C87.3612 4.66893 85.0034 0.00904137 83.0103 -4.29492C81.0503 -8.52729 79.4402 -12.4239 79.3901 -16.9844H79.3892C79.3895 -16.989 79.3898 -16.9944 79.3901 -16.999C79.3894 -17.0666 79.3882 -17.1352 79.3882 -17.2031H79.4087C79.7696 -21.4028 80.6852 -25.2519 81.7368 -29.2969C82.8072 -33.414 84.0163 -37.7352 84.9302 -42.8525C85.4183 -45.5863 86.084 -48.8501 86.314 -51.3799H86.3159C86.3154 -51.4569 86.314 -51.5333 86.314 -51.6084H86.6382C86.6382 -49.7689 86.8106 -47.3248 86.9839 -44.915C87.1568 -42.51 87.3305 -40.1369 87.3306 -38.4512C87.3306 -33.083 87.6193 -27.3729 87.9077 -23.0049C88.0519 -20.8218 88.1961 -18.9738 88.3042 -17.6719C88.3582 -17.0211 88.4035 -16.506 88.4351 -16.1543C88.4468 -16.0229 88.4567 -15.9137 88.4644 -15.8291H88.4849V-15.4961C88.4858 -15.2814 88.4881 -14.9694 88.4917 -14.5859C88.4989 -13.8185 88.5137 -12.7588 88.5425 -11.5918C88.6002 -9.25415 88.7154 -6.49184 88.9448 -4.77051C89.4134 -1.25656 91.5454 7.96647 93.564 16.3223C94.5726 20.4975 95.5526 24.4538 96.2798 27.3652C96.6432 28.8203 96.9442 30.015 97.1538 30.8457C97.2585 31.2608 97.3401 31.5861 97.396 31.8066C97.4099 31.8615 97.4223 31.9104 97.4331 31.9521H97.4868C97.4868 32.0092 97.483 32.0716 97.48 32.1377V32.1387C97.4804 32.14 97.4815 32.1417 97.4819 32.1426V32.1436H97.48C97.4441 32.9014 97.2215 34.223 97.023 35.4404C96.8522 36.4874 96.4987 37.3689 96.1655 38.1797C95.8303 38.9955 95.5198 39.7321 95.4077 40.5156C95.2958 41.2989 95.385 42.2623 95.5181 43.3623C95.6503 44.4552 95.8244 45.6773 95.8706 46.9502C95.9181 48.26 95.9186 49.9369 95.9067 51.2842C95.9008 51.9578 95.8917 52.5508 95.8843 52.9746C95.8806 53.1858 95.8769 53.3559 95.8745 53.4727C95.8733 53.5306 95.8723 53.5768 95.8716 53.6074C95.8713 53.6219 95.8717 53.6338 95.8716 53.6416C95.8715 53.6451 95.8708 53.6492 95.8706 53.6514V53.6611L95.8696 53.6689V53.6738C95.8692 53.6773 95.8684 53.6835 95.8677 53.6904C95.8662 53.7049 95.8643 53.7272 95.8618 53.7549C95.8569 53.8107 95.8502 53.892 95.8452 53.9902C95.8352 54.1879 95.8304 54.4556 95.8501 54.7354C95.8699 55.0163 95.9139 55.3037 95.9985 55.5439C96.081 55.7776 96.1966 55.9464 96.3433 56.0371C96.3659 56.0181 96.4024 55.9763 96.4468 55.8955C96.5419 55.7222 96.6441 55.4397 96.7495 55.0703C96.9592 54.3351 97.1716 53.3027 97.3813 52.2344C97.5904 51.1696 97.7973 50.0685 97.9946 49.207C98.0933 48.7766 98.1909 48.3997 98.2866 48.1152C98.3343 47.9736 98.383 47.8497 98.4331 47.752C98.4801 47.6603 98.5399 47.5669 98.6196 47.5137C98.7597 47.4203 98.9185 47.4229 99.063 47.4746C99.2024 47.5248 99.3418 47.6243 99.4731 47.7461C99.7378 47.9916 100.014 48.3675 100.262 48.7764C100.512 49.1871 100.739 49.6426 100.905 50.0547C101.068 50.4602 101.18 50.847 101.18 51.1113C101.18 51.5702 101.238 52.3051 101.267 53.0957C101.296 53.8736 101.297 54.6999 101.177 55.2979C101.143 55.4706 101.028 55.7079 100.875 55.9766C100.719 56.251 100.512 56.5777 100.273 56.9355C99.7962 57.6507 99.1876 58.5064 98.6128 59.3398C98.0356 60.1767 97.4915 60.9933 97.1353 61.6416C96.9568 61.9664 96.8299 62.241 96.7681 62.4502C96.7373 62.5546 96.7254 62.6349 96.7271 62.6914C96.7279 62.7183 96.7318 62.7371 96.7358 62.749L96.7466 62.7686C96.7474 62.7693 96.7501 62.7716 96.7563 62.7734C96.7641 62.7757 96.7796 62.7782 96.8042 62.7764C96.8558 62.7723 96.9311 62.751 97.0317 62.7051C97.2328 62.6133 97.4952 62.4405 97.8022 62.2031C98.414 61.73 99.1733 61.0222 99.9214 60.2598C100.669 59.4981 101.401 58.6864 101.96 58.0088C102.24 57.67 102.476 57.3662 102.647 57.1201C102.733 56.9971 102.801 56.8893 102.851 56.8008C102.903 56.7097 102.929 56.6472 102.938 56.6113C103.052 56.1559 103.281 54.7824 103.542 53.333C103.8 51.8954 104.091 50.3809 104.327 49.6748C104.574 48.9335 104.574 48.0974 104.481 47.2627C104.387 46.4221 104.203 45.6174 104.089 44.9043C103.627 42.0166 103.166 38.6095 102.82 35.9258C102.647 34.584 102.502 33.4218 102.401 32.5957C102.35 32.1832 102.311 31.8538 102.284 31.6279C102.278 31.5806 102.274 31.5372 102.269 31.499L102.242 31.501V31.4961C102.241 31.4925 102.241 31.4862 102.241 31.4795C102.24 31.465 102.239 31.4423 102.237 31.4141C102.233 31.3568 102.228 31.2709 102.221 31.1602C102.208 30.9376 102.188 30.6099 102.162 30.1924C102.11 29.3563 102.035 28.1558 101.943 26.7012C101.759 23.7908 101.506 19.8586 101.232 15.7764C100.683 7.60739 100.05 -1.15564 99.7046 -3.57227C99.4111 -5.62651 98.8341 -8.85527 98.3306 -11.5723C98.079 -12.9298 97.8457 -14.1599 97.6753 -15.0498C97.5902 -15.4943 97.5203 -15.8557 97.4722 -16.1045C97.4581 -16.177 97.4464 -16.241 97.436 -16.2939L97.394 -16.2949V-16.3018C97.3942 -16.3061 97.3948 -16.313 97.395 -16.3213C97.3954 -16.3386 97.3962 -16.3646 97.397 -16.3984C97.3976 -16.423 97.3982 -16.4523 97.3989 -16.4854C97.3986 -16.4867 97.3981 -16.4884 97.398 -16.4893L97.397 -16.4902L97.3999 -16.4912C97.4012 -16.5491 97.402 -16.6198 97.4038 -16.7021C97.4097 -16.9688 97.4173 -17.3619 97.4263 -17.8662C97.4443 -18.8756 97.4665 -20.333 97.481 -22.1211C97.5098 -25.6963 97.5093 -30.5973 97.394 -35.9014L97.3335 -36.9111C97.0541 -42.0216 97.1014 -48.0354 97.0474 -53.251C97.0185 -56.0348 96.9611 -58.5915 96.8101 -60.667C96.7345 -61.7045 96.6359 -62.6203 96.5063 -63.3818C96.3765 -64.1453 96.2166 -64.7452 96.0239 -65.1582C94.4447 -68.5418 91.0729 -69.2178 88.272 -70.1514L88.2788 -70.1748C87.8711 -70.2947 87.345 -70.4519 86.7329 -70.6416C85.2341 -71.1061 83.2147 -71.7655 81.1362 -72.542C79.0588 -73.3181 76.9167 -74.213 75.1743 -75.1514C74.3033 -75.6205 73.5283 -76.1036 72.9097 -76.5889C72.2936 -77.0723 71.8197 -77.568 71.5679 -78.0684C70.6359 -79.9217 70.3443 -82.3771 70.2817 -84.7539C70.2504 -85.9446 70.2772 -87.1227 70.311 -88.2021C70.3336 -88.924 70.3578 -89.6006 70.3726 -90.21ZM24.9224 54.5664C24.9377 54.8156 24.9634 55.0461 25.0034 55.2461C25.0266 55.3618 25.1145 55.558 25.2681 55.8281C25.4184 56.0926 25.6217 56.4118 25.8589 56.7676C26.3341 57.4804 26.9379 58.3281 27.5171 59.168C28.0938 60.0041 28.6462 60.8327 29.0112 61.4971C29.0424 61.5538 29.0715 61.6104 29.1001 61.665L28.9771 61.3945C29.0033 61.3823 29.0533 61.3374 29.106 61.2393C29.1556 61.1466 29.1981 61.0258 29.2222 60.8955C29.2725 60.6224 29.2346 60.3669 29.1118 60.2354C28.9263 60.0364 28.5785 59.5604 28.2251 59.0615C27.8665 58.5554 27.4961 58.0181 27.2524 57.6816C27.1331 57.5169 26.9063 57.2326 26.6313 56.8867C26.358 56.5429 26.0398 56.1411 25.7417 55.7471C25.4441 55.3538 25.1629 54.9633 24.9663 54.6426C24.9507 54.6172 24.937 54.5912 24.9224 54.5664ZM100.896 54.6309C100.699 54.9516 100.419 55.3421 100.122 55.7354C99.8234 56.1294 99.5053 56.5312 99.2319 56.875C98.9573 57.2205 98.7302 57.5041 98.6108 57.6689C98.3672 58.0054 97.9968 58.5435 97.6382 59.0498C97.2847 59.5487 96.937 60.0247 96.7515 60.2236C96.6288 60.3551 96.591 60.61 96.6411 60.8828C96.6652 61.0131 96.7076 61.1348 96.7573 61.2275C96.8098 61.3253 96.8599 61.3704 96.8862 61.3828L96.7681 61.6416C96.7948 61.5907 96.8221 61.538 96.8511 61.4854C97.2161 60.821 97.7686 59.9924 98.3452 59.1562C98.9244 58.3164 99.5282 57.4687 100.003 56.7559C100.241 56.4001 100.444 56.0809 100.594 55.8164C100.748 55.5463 100.836 55.35 100.859 55.2344C100.899 55.0344 100.925 54.8039 100.94 54.5547C100.925 54.5794 100.912 54.6055 100.896 54.6309ZM24.9194 53.1201C24.9103 53.3663 24.9053 53.6139 24.9048 53.8545C24.9189 53.865 24.9336 53.8753 24.9478 53.8867C25.0528 53.9714 25.1715 54.0898 25.2964 54.2275C25.5471 54.504 25.8399 54.8777 26.1294 55.2686C26.7088 56.0508 27.2872 56.9194 27.5181 57.2656C27.7462 57.6078 28.0893 58.0645 28.4087 58.5C28.7225 58.9279 29.022 59.3457 29.145 59.5918C29.2378 59.7768 29.4895 59.9866 29.7642 60.124C29.8984 60.1911 30.0262 60.2352 30.1265 60.25C30.2327 60.2656 30.2671 60.2435 30.27 60.2412C30.2727 60.2365 30.2802 60.2178 30.2769 60.1699C30.2723 60.1063 30.2494 60.0153 30.2026 59.8965C30.1095 59.6597 29.9365 59.3474 29.7026 58.9785C29.2358 58.2422 28.5442 57.3088 27.8198 56.3564C27.0976 55.4069 26.3418 54.4368 25.7544 53.6348C25.4606 53.2337 25.2065 52.8709 25.0181 52.5713C24.9948 52.5343 24.973 52.4972 24.9517 52.4619C24.9406 52.6762 24.9276 52.8984 24.9194 53.1201ZM100.844 52.5596C100.656 52.8592 100.402 53.2219 100.108 53.623C99.5205 54.4251 98.7648 55.3951 98.0425 56.3447C97.3181 57.2972 96.6265 58.2305 96.1597 58.9668C95.9258 59.3356 95.7529 59.648 95.6597 59.8848C95.613 60.0034 95.5901 60.0946 95.5855 60.1582C95.5822 60.2041 95.5894 60.2239 95.5923 60.2295L95.5933 60.2305C95.5976 60.2335 95.6331 60.2535 95.7368 60.2383C95.837 60.2234 95.965 60.1803 96.0991 60.1133C96.3739 59.9757 96.6256 59.7651 96.7183 59.5801C96.8413 59.334 97.1398 58.9161 97.4536 58.4883C97.773 58.0527 98.1161 57.5961 98.3442 57.2539C98.5751 56.9076 99.1543 56.0393 99.7339 55.2568C100.023 54.866 100.316 54.4923 100.567 54.2158C100.692 54.0782 100.811 53.9606 100.916 53.876C100.929 53.8648 100.944 53.8541 100.958 53.8438C100.957 53.603 100.952 53.3548 100.943 53.1084C100.935 52.8868 100.922 52.6643 100.911 52.4502C100.889 52.4855 100.868 52.5225 100.844 52.5596ZM25.0913 50.667C25.0368 50.8546 25.0064 51.0111 25.0063 51.123C25.0063 51.3064 24.9966 51.537 24.9839 51.7959C24.996 51.8464 25.0246 51.9208 25.0747 52.0205C25.1281 52.1267 25.2014 52.2536 25.2925 52.3984C25.4748 52.6883 25.7237 53.0442 26.0161 53.4434C26.6013 54.2423 27.3518 55.2059 28.0776 56.1602C28.7267 57.0135 29.3541 57.8622 29.8198 58.5684C29.8203 58.5613 29.8228 58.5534 29.8228 58.5449C29.8221 58.4803 29.8054 58.389 29.7681 58.2705C29.6936 58.0342 29.5483 57.7221 29.3481 57.3535C28.9485 56.6178 28.3467 55.6846 27.7124 54.7324C27.0803 53.7835 26.4145 52.8131 25.895 52.0117C25.6351 51.6108 25.409 51.2484 25.2407 50.9492C25.1852 50.8504 25.1353 50.755 25.0913 50.667ZM100.622 50.9375C100.453 51.2367 100.227 51.599 99.9673 52C99.4478 52.8014 98.782 53.7718 98.1499 54.7207C97.5156 55.6729 96.9138 56.606 96.5142 57.3418C96.314 57.7103 96.1687 58.0225 96.0942 58.2588C96.057 58.377 96.0403 58.4686 96.0396 58.5332C96.0395 58.5415 96.0419 58.5497 96.0425 58.5566C96.5082 57.8505 97.1356 57.0018 97.7847 56.1484C98.5105 55.1941 99.261 54.2306 99.8462 53.4316C100.139 53.0324 100.387 52.6766 100.57 52.3867C100.661 52.2419 100.734 52.115 100.788 52.0088C100.838 51.9091 100.866 51.8347 100.878 51.7842C100.866 51.5255 100.856 51.2946 100.856 51.1113C100.856 50.9995 100.825 50.8427 100.771 50.6553C100.727 50.7433 100.677 50.8387 100.622 50.9375ZM63.1616 -124.676C59.648 -124.676 56.5679 -123.726 54.3657 -121.534C52.1644 -119.343 50.7905 -115.86 50.7905 -110.688C50.7905 -105.703 51.3551 -101.433 52.3462 -97.9326C52.362 -97.9234 52.3771 -97.9124 52.3931 -97.9033L52.3667 -97.8594C52.9257 -95.9027 53.618 -94.1877 54.4214 -92.7246C54.7479 -92.13 55.0932 -91.5783 55.4536 -91.0684H55.7065C55.7065 -90.9535 55.7094 -90.8353 55.7105 -90.7148C57.7846 -87.9535 60.3605 -86.5451 63.1616 -86.5449C65.9283 -86.545 68.406 -87.995 70.3823 -90.7646C70.3835 -90.8683 70.3862 -90.9699 70.3862 -91.0684H70.5933C70.971 -91.626 71.33 -92.2333 71.6675 -92.8896C72.3754 -94.2664 72.9868 -95.8538 73.4897 -97.6367L73.4692 -97.6729C73.482 -97.6802 73.4936 -97.6898 73.5063 -97.6973C74.2049 -100.192 74.69 -103.069 74.9194 -106.289L74.8442 -106.401C74.8734 -106.421 74.9025 -106.439 74.9312 -106.457C75.0234 -107.808 75.0718 -109.22 75.0718 -110.688C75.0718 -115.867 73.8093 -119.352 71.7212 -121.541C69.6355 -123.727 66.6745 -124.676 63.1616 -124.676ZM75.7134 -106.361C75.6086 -106.387 75.4557 -106.369 75.2397 -106.259C75.0199 -103.178 74.5709 -100.405 73.9194 -97.9727C75.1907 -98.9303 75.9516 -100.647 76.1577 -103.738C76.1882 -104.196 76.2035 -104.637 76.188 -105.025C76.1723 -105.416 76.1252 -105.743 76.0396 -105.979C75.9534 -106.217 75.8409 -106.329 75.7134 -106.361ZM50.6069 -106.168C50.2728 -106.391 50.0542 -106.431 49.9175 -106.397C49.7899 -106.366 49.6775 -106.253 49.5913 -106.016C49.5056 -105.779 49.4585 -105.452 49.4429 -105.062C49.4273 -104.673 49.4426 -104.232 49.4731 -103.774C49.5875 -102.059 49.9304 -100.814 50.4351 -99.8887C50.8368 -99.1522 51.3464 -98.6142 51.9341 -98.1982C51.298 -100.546 50.8513 -103.219 50.6284 -106.202L50.6069 -106.168Z" fill="#000C40"/>
</g>
</g>
<defs>
<filter id="filter0_d_0_21" x="0" y="0" width="125" height="258" filterUnits="userSpaceOnUse" color-interpolation-filters="sRGB">
<feFlood flood-opacity="0" result="BackgroundImageFix"/>
<feColorMatrix in="SourceAlpha" type="matrix" values="0 0 0 0 0 0 0 0 0 0 0 0 0 0 0 0 0 0 127 0" result="hardAlpha"/>
<feMorphology radius="16" operator="erode" in="SourceAlpha" result="effect1_dropShadow_0_21"/>
<feOffset dy="10"/>
<feGaussianBlur stdDeviation="12"/>
<feComposite in2="hardAlpha" operator="out"/>
<feColorMatrix type="matrix" values="0 0 0 0 0 0 0 0 0 0 0 0 0 0 0 0 0 0 0.25 0"/>
<feBlend mode="normal" in2="BackgroundImageFix" result="effect1_dropShadow_0_21"/>
<feBlend mode="normal" in="SourceGraphic" in2="effect1_dropShadow_0_21" result="shape"/>
</filter>
<clipPath id="clip0_0_21">
<rect x="8" width="109" height="240" rx="3" fill="white"/>
</clipPath>
</defs>
</svg>
