<svg preserveAspectRatio="none" width="100%" height="100%" overflow="visible" style="display: block;" viewBox="0 0 18.5032 14.8932" fill="none" xmlns="http://www.w3.org/2000/svg">
<path d="M5.19434 0.450757C5.19434 0.450757 5.74122 0.299105 6.09694 0.225108C7.2682 -0.0185414 9.1521 0.000339996 9.1521 0.000339996C9.4183 0.0609559 9.74276 0.0488916 10.0163 0.0848423C13.43 0.533499 16.7342 2.37017 17.9544 5.90113C18.3992 7.18822 18.4429 7.84331 18.4973 9.17551C18.7433 15.2 11.2862 14.8608 7.34923 14.8929C5.67805 14.9062 3.98508 14.4563 2.79332 13.7647C1.60156 13.073 -0.11078 10.6196 0.00563634 7.22098L0.00961427 7.07298C0.0522487 6.91575 0.2085 5.70754 0.219479 5.41558C0.227871 5.19242 0.283165 4.67904 0.455706 4.28734C0.726639 3.67226 0.726784 3.46862 1.13265 2.9329C1.3518 2.64364 1.52865 2.52797 1.7847 2.2708C2.14416 1.90975 2.93785 1.35335 2.93785 1.35335C2.93785 1.35335 3.67222 0.900599 4.29174 0.676407C4.69583 0.530177 5.19434 0.450757 5.19434 0.450757ZM10.0163 11.9594C11.141 11.7872 13.4449 11.3649 13.9903 10.3799C15.0649 8.43874 14.6672 5.89275 12.6983 4.36446C11.3504 3.31815 9.75755 3.56001 8.14568 3.66122C7.1693 3.69365 6.18421 4.01399 5.43789 4.78947C4.86326 5.47926 4.27899 6.22994 4.29174 7.07298C4.32124 9.02101 4.47085 9.26085 5.86688 10.6055C7.06859 11.763 8.45367 12.2003 10.0163 11.9594Z" fill="#F2F2F2"/>
</svg>
