<svg preserveAspectRatio="none" width="100%" height="100%" overflow="visible" style="display: block;" viewBox="0 0 19.5999 15.2999" fill="none" xmlns="http://www.w3.org/2000/svg">
<g id="Margin">
<g id="Icon" filter="url(#filter0_g_0_15)">
<path d="M2.10768 11.2999C1.60255 11.2999 1.17499 11.1249 0.824995 10.7749C0.474999 10.4249 0.3 9.99737 0.3 9.49225V2.10768C0.3 1.60255 0.474999 1.17499 0.824995 0.824995C1.17499 0.474999 1.60255 0.3 2.10768 0.3H17.4922C17.9974 0.3 18.4249 0.474999 18.7749 0.824995C19.1249 1.17499 19.2999 1.60255 19.2999 2.10768V9.49225C19.2999 9.99737 19.1249 10.4249 18.7749 10.7749C18.4249 11.1249 17.9974 11.2999 17.4922 11.2999H2.10768V11.2999M2.10768 9.79996H17.4922C17.5692 9.79996 17.6397 9.76791 17.7038 9.7038C17.7679 9.6397 17.8 9.56918 17.8 9.49225V2.10768C17.8 2.03075 17.7679 1.96023 17.7038 1.89612C17.6397 1.83202 17.5692 1.79996 17.4922 1.79996H14.5499V5.41532H13.05V1.79996H10.5499V5.41532H9.04998V1.79996H6.54995V5.41532H5.04998V1.79996H2.10768C2.03075 1.79996 1.96023 1.83202 1.89612 1.89612C1.83202 1.96023 1.79996 2.03075 1.79996 2.10768V9.49225C1.79996 9.56918 1.83202 9.6397 1.89612 9.7038C1.96023 9.76791 2.03075 9.79996 2.10768 9.79996V9.79996M5.04998 5.41532V5.41532H6.54995V5.41532H5.04998V5.41532M9.04998 5.41532V5.41532H10.5499V5.41532H9.04998V5.41532M13.05 5.41532V5.41532H14.5499V5.41532H13.05V5.41532M9.79996 5.79996V5.79996V5.79996V5.79996V5.79996V5.79996V5.79996V5.79996V5.79996V5.79996V5.79996V5.79996V5.79996V5.79996V5.79996V5.79996V5.79996V5.79996V5.79996V5.79996V5.79996V5.79996V5.79996V5.79996V5.79996V5.79996" fill="#F2F2F2"/>
</g>
</g>
<defs>
<filter id="filter0_g_0_15" x="0" y="0" width="19.5999" height="11.5999" filterUnits="userSpaceOnUse" color-interpolation-filters="sRGB">
<feFlood flood-opacity="0" result="BackgroundImageFix"/>
<feBlend mode="normal" in="SourceGraphic" in2="BackgroundImageFix" result="shape"/>
<feTurbulence type="fractalNoise" baseFrequency="0.25 0.25" numOctaves="3" seed="4512" />
<feDisplacementMap in="shape" scale="0.60000002384185791" xChannelSelector="R" yChannelSelector="G" result="displacedImage" width="100%" height="100%" />
<feMerge result="effect1_texture_0_15">
<feMergeNode in="displacedImage"/>
</feMerge>
</filter>
</defs>
</svg>
