<svg preserveAspectRatio="none" width="100%" height="100%" overflow="visible" style="display: block;" viewBox="0 0 80.8103 62.2567" fill="none" xmlns="http://www.w3.org/2000/svg">
<g id="Union" filter="url(#filter0_d_0_17)">
<path d="M67.744 4.16894C70.6749 3.8007 72.9969 4.03232 74.5595 4.88476C75.3121 5.29551 75.9047 5.86016 76.2929 6.59375C76.6783 7.32226 76.8377 8.17011 76.8065 9.11328C76.7425 11.0462 75.8663 13.4703 74.1825 16.2861L72.8944 15.5166C74.5235 12.7924 75.2546 10.6282 75.3065 9.06445C75.3313 8.318 75.2029 7.74242 74.9667 7.29589C74.7331 6.85438 74.3693 6.49014 73.8417 6.20214C72.6898 5.57351 70.7471 5.30252 67.9315 5.65625C65.1607 6.0044 61.7432 6.93284 57.8134 8.45703C49.9565 11.5044 40.7977 16.646 32.1366 22.8965C23.4723 29.1493 15.9998 36.0107 11.1522 42.1211C8.72588 45.1796 7.08911 47.8845 6.22353 50.1182C5.34245 52.3923 5.35398 53.9247 5.79092 54.8555C6.18751 55.6997 7.11894 56.4137 9.04775 56.665C10.9891 56.918 13.6936 56.6532 17.1112 55.7461C23.9285 53.9365 32.6634 49.8199 41.6044 44.1475C50.5343 38.482 58.9462 31.7237 65.2011 25.2051L65.7421 25.7246L66.2841 26.2441C59.9335 32.8625 51.4236 39.6943 42.4081 45.4141C33.3925 51.1338 24.5134 55.3336 17.496 57.1963C13.9875 58.1275 11.0691 58.4418 8.85439 58.1533C6.63797 57.8645 5.12772 56.971 4.43349 55.4932C3.73922 54.0146 3.88544 52.0014 4.8251 49.5762C5.76491 47.1509 7.49812 44.3135 9.97646 41.1894C14.9336 34.9409 22.519 27.9869 31.2587 21.6797C39.9983 15.3726 49.2696 10.1611 57.2714 7.05761C61.272 5.506 64.8129 4.53728 67.744 4.16894ZM72.3134 17.2519C72.7192 17.0131 73.2005 17.4163 73.036 17.8574L72.0009 20.6269C71.9454 20.7754 71.9644 20.9413 72.0507 21.0742L73.6942 23.6025C73.9631 24.0163 73.5332 24.528 73.079 24.335L70.3046 23.1553C70.1588 23.0933 69.9919 23.1043 69.8554 23.1846L67.3075 24.6846C66.9017 24.9234 66.4205 24.5202 66.5849 24.0791L67.62 21.3096C67.6755 21.1611 67.6566 20.9952 67.5702 20.8623L65.9276 18.334C65.6586 17.9202 66.0877 17.4085 66.5419 17.6016L69.3173 18.7812C69.4631 18.843 69.63 18.8323 69.7665 18.7519L72.3134 17.2519Z" fill="white"/>
</g>
<defs>
<filter id="filter0_d_0_17" x="1.11191e-07" y="-4.38754e-08" width="80.8103" height="62.2567" filterUnits="userSpaceOnUse" color-interpolation-filters="sRGB">
<feFlood flood-opacity="0" result="BackgroundImageFix"/>
<feColorMatrix in="SourceAlpha" type="matrix" values="0 0 0 0 0 0 0 0 0 0 0 0 0 0 0 0 0 0 127 0" result="hardAlpha"/>
<feOffset/>
<feGaussianBlur stdDeviation="2"/>
<feComposite in2="hardAlpha" operator="out"/>
<feColorMatrix type="matrix" values="0 0 0 0 1 0 0 0 0 1 0 0 0 0 1 0 0 0 1 0"/>
<feBlend mode="normal" in2="BackgroundImageFix" result="effect1_dropShadow_0_17"/>
<feBlend mode="normal" in="SourceGraphic" in2="effect1_dropShadow_0_17" result="shape"/>
</filter>
</defs>
</svg>
