<svg preserveAspectRatio="none" width="100%" height="100%" overflow="visible" style="display: block;" viewBox="0 0 19.6095 19.2999" fill="none" xmlns="http://www.w3.org/2000/svg">
<g id="Margin">
<g id="Icon" filter="url(#filter0_g_0_12)">
<path d="M1.04998 15.2999C0.837487 15.2999 0.659366 15.2284 0.51562 15.0854C0.371873 14.9424 0.3 14.7652 0.3 14.5538C0.3 14.4294 0.32532 14.3138 0.37596 14.2068C0.4266 14.0998 0.502559 14.0148 0.603839 13.9519L9.04998 7.66536V5.89612C9.04998 5.68363 9.12465 5.50551 9.27399 5.36176C9.42333 5.21802 9.60378 5.14614 9.81535 5.14614C10.2769 5.14614 10.6702 4.98004 10.9952 4.64784C11.3202 4.31564 11.4827 3.91884 11.4827 3.45744C11.4827 2.99605 11.3203 2.60446 10.9957 2.28266C10.671 1.96086 10.2768 1.79996 9.81297 1.79996C9.34917 1.79996 8.9522 1.96169 8.62207 2.28514C8.29194 2.6086 8.12687 3.00136 8.12687 3.46344H6.62691C6.62691 2.58652 6.93652 1.84005 7.55575 1.22403C8.17498 0.60801 8.92625 0.3 9.80958 0.3C10.6929 0.3 11.4426 0.605446 12.0586 1.21634C12.6746 1.82723 12.9826 2.57434 12.9826 3.45767C12.9826 4.20254 12.7567 4.85927 12.3047 5.42785C11.8528 5.99644 11.2679 6.36855 10.5499 6.54419V7.66536L19.0057 13.9519C19.107 14.0143 19.1829 14.0985 19.2336 14.2046C19.2842 14.3107 19.3095 14.4261 19.3095 14.5509C19.3095 14.7631 19.2377 14.941 19.0939 15.0845C18.9502 15.2281 18.7721 15.2999 18.5596 15.2999H1.04998V15.2999M3.31916 13.8H16.2904L9.79996 8.98263L3.31916 13.8V13.8" fill="#F2F2F2"/>
</g>
</g>
<defs>
<filter id="filter0_g_0_12" x="0" y="0" width="19.6095" height="15.5999" filterUnits="userSpaceOnUse" color-interpolation-filters="sRGB">
<feFlood flood-opacity="0" result="BackgroundImageFix"/>
<feBlend mode="normal" in="SourceGraphic" in2="BackgroundImageFix" result="shape"/>
<feTurbulence type="fractalNoise" baseFrequency="0.25 0.25" numOctaves="3" seed="6385" />
<feDisplacementMap in="shape" scale="0.60000002384185791" xChannelSelector="R" yChannelSelector="G" result="displacedImage" width="100%" height="100%" />
<feMerge result="effect1_texture_0_12">
<feMergeNode in="displacedImage"/>
</feMerge>
</filter>
</defs>
</svg>
